<svg xmlns="http://www.w3.org/2000/svg" xmlns:xlink="http://www.w3.org/1999/xlink" version="1.1" x="0px" y="0px" viewBox="0 0 100 100" enable-background="new 0 0 100 100" xml:space="preserve"><path d="M14.654,41.222c-0.929-1.215-1.789-2.337-2.647-3.46c-0.573-0.75-1.171-1.482-1.708-2.257  c-1.138-1.639-0.412-3.869,1.404-4.313c1.134-0.277,2.022,0.18,2.709,1.073c1.294,1.683,2.581,3.372,3.872,5.057  c0.109,0.143,0.226,0.281,0.383,0.477c3.469-2.548,7.197-4.608,11.236-6.19c-0.106-0.224-0.186-0.403-0.275-0.577  c-0.994-1.935-1.999-3.864-2.98-5.805c-0.637-1.262-0.356-2.74,0.639-3.572c1.265-1.057,3.048-0.671,3.859,0.87  c1.056,2.005,2.076,4.028,3.119,6.04c0.232,0.448,0.392,1.076,0.765,1.264c0.337,0.17,0.923-0.138,1.395-0.254  c3.48-0.853,7.016-1.304,10.589-1.501c0.124-0.007,0.248-0.022,0.456-0.04c0-0.221,0-0.432,0-0.642c0-2.414-0.008-4.828,0.005-7.243  c0.007-1.258,0.846-2.225,2.103-2.478c1.081-0.218,2.276,0.394,2.708,1.453c0.16,0.391,0.232,0.843,0.236,1.269  c0.022,2.323,0.011,4.647,0.011,6.97c0,0.212,0,0.424,0,0.658c1.183,0.088,2.3,0.167,3.416,0.254c2.95,0.23,5.866,0.685,8.738,1.4  c0.466,0.116,0.687,0.03,0.911-0.418c1.112-2.22,2.262-4.422,3.412-6.622c0.588-1.124,1.653-1.69,2.71-1.48  c1.79,0.356,2.698,2.312,1.85,4.056c-0.626,1.287-1.306,2.549-1.962,3.822c-0.389,0.755-0.777,1.511-1.202,2.337  c4.079,1.523,7.869,3.502,11.387,6.099c0.14-0.173,0.265-0.319,0.381-0.471c1.172-1.526,2.341-3.053,3.513-4.578  c1.029-1.338,2.478-1.66,3.649-0.814c1.222,0.883,1.482,2.677,0.519,3.981c-1.196,1.62-2.442,3.203-3.666,4.803  c-0.109,0.143-0.213,0.29-0.439,0.585c0.172,0.105,0.373,0.181,0.512,0.319c2.838,2.818,5.288,5.928,7.054,9.537  c0.132,0.271,0.177,0.691,0.065,0.959C88.778,62.85,81.611,71.681,70.934,77.41c-4.582,2.459-9.496,3.919-14.656,4.556  c-8.223,1.015-16.213,0.178-23.879-3.074c-7.424-3.149-13.43-8.127-18.366-14.445c-2.996-3.835-5.472-7.981-7.349-12.48  c-0.187-0.447-0.179-0.789,0.073-1.212c1.999-3.364,4.479-6.335,7.288-9.043C14.227,41.539,14.437,41.395,14.654,41.222z   M68.033,38.43c-0.031,0.052-0.062,0.103-0.093,0.155c5.577,10.492,1.212,20.956-4.498,25.854  c-6.541,5.61-15.744,6.699-23.192,2.562c-4.937-2.742-8.263-6.844-9.881-12.258c-1.61-5.388-1.04-10.621,1.46-15.699  c-0.149,0.016-0.205,0.01-0.25,0.029c-6.582,2.735-11.978,7.016-16.381,12.584c-0.105,0.133-0.114,0.449-0.031,0.609  c1.249,2.397,2.581,4.748,4.252,6.882c4.205,5.372,9.127,9.868,15.481,12.609c2.114,0.912,4.237,1.805,6.498,2.268  c3.5,0.716,7.052,0.894,10.613,0.748c3.65-0.15,7.254-0.571,10.698-1.936c3.452-1.367,6.798-2.936,9.732-5.23  c5.114-3.999,9.175-8.884,12.183-14.658c0.526-1.01,0.407-1.663-0.255-2.483c-3.132-3.877-6.692-7.249-11.165-9.545  C71.501,40.049,69.758,39.258,68.033,38.43z M50.033,46.124c-0.001,2.883,2.307,5.231,5.144,5.231c2.834,0,5.147-2.349,5.147-5.23  c0-2.879-2.312-5.228-5.146-5.228C52.342,40.898,50.034,43.241,50.033,46.124z"></path></svg>