<?xml version="1.0" encoding="UTF-8" standalone="no"?>
<svg
   xmlns:dc="http://purl.org/dc/elements/1.1/"
   xmlns:cc="http://creativecommons.org/ns#"
   xmlns:rdf="http://www.w3.org/1999/02/22-rdf-syntax-ns#"
   xmlns:svg="http://www.w3.org/2000/svg"
   xmlns="http://www.w3.org/2000/svg"
   xmlns:sodipodi="http://sodipodi.sourceforge.net/DTD/sodipodi-0.dtd"
   xmlns:inkscape="http://www.inkscape.org/namespaces/inkscape"
   version="1.1"
   x="0px"
   y="0px"
   viewBox="0 0 88.867538 86.426857"
   enable-background="new 0 0 64 64"
   xml:space="preserve"
   id="svg2"
   inkscape:version="0.91 r13725"
   sodipodi:docname="BBQ.svg"
   width="88.867538"
   height="86.426857"><metadata
     id="metadata28"><rdf:RDF><cc:Work
         rdf:about=""><dc:format>image/svg+xml</dc:format><dc:type
           rdf:resource="http://purl.org/dc/dcmitype/StillImage" /><dc:title></dc:title></cc:Work></rdf:RDF></metadata><defs
     id="defs26" /><sodipodi:namedview
     pagecolor="#ffffff"
     bordercolor="#666666"
     borderopacity="1"
     objecttolerance="10"
     gridtolerance="10"
     guidetolerance="10"
     inkscape:pageopacity="0"
     inkscape:pageshadow="2"
     inkscape:window-width="1920"
     inkscape:window-height="1018"
     id="namedview24"
     showgrid="false"
     fit-margin-top="0"
     fit-margin-left="0"
     fit-margin-right="0"
     fit-margin-bottom="0"
     inkscape:zoom="3.6875"
     inkscape:cx="43.891398"
     inkscape:cy="44.704954"
     inkscape:window-x="-8"
     inkscape:window-y="-8"
     inkscape:window-maximized="1"
     inkscape:current-layer="svg2" /><rect
     style="fill:#f0b848;fill-opacity:1;stroke:#000000;stroke-width:3.215;stroke-linecap:butt;stroke-linejoin:round;stroke-miterlimit:4;stroke-dasharray:none;stroke-opacity:1"
     id="rect4156"
     width="85.152542"
     height="82.711861"
     x="1.8575"
     y="1.8575" /><g
     id="g4"
     transform="translate(11.891398,9.721907)"><path
       d="m 32.999,49.121 c -11.339,0 -20.565,-9.224 -20.565,-20.562 l 0,-1 41.126,0 0,1 C 53.561,39.897 44.337,49.121 32.999,49.121 Z M 14.461,29.559 c 0.521,9.772 8.637,17.562 18.538,17.562 9.899,0 18.014,-7.79 18.535,-17.562 l -37.073,0 z"
       id="path6"
       inkscape:connector-curvature="0"
       style="fill:#000000" /><rect
       x="30.910999"
       y="48.120998"
       width="2"
       height="15.215"
       id="rect8"
       style="fill:#000000" /><g
       id="g10"><rect
         x="17.004"
         y="44.063"
         transform="matrix(0.7921,0.6104,-0.6104,0.7921,37.2049,0.4078)"
         width="2"
         height="21.509001"
         id="rect12"
         style="fill:#000000" /><rect
         x="35.058998"
         y="53.817001"
         transform="matrix(0.6104,0.7921,-0.7921,0.6104,61.2675,-14.9325)"
         width="21.509001"
         height="2"
         id="rect14"
         style="fill:#000000" /></g><path
       d="M 31.739,44.941 C 20.823,43.04 18.361,33.728 18.261,33.332 l 1.939,-0.49 c 0.088,0.345 2.276,8.456 11.881,10.129 l -0.342,1.97 z"
       id="path16"
       inkscape:connector-curvature="0"
       style="fill:#000000" /><path
       d="m 30.699,24.654 -1.564,-1.246 c 0.39,-0.49 0.819,-0.964 1.25,-1.439 1.179,-1.302 2.293,-2.532 2.583,-4.106 0.325,-1.754 -0.281,-2.842 -1.199,-4.49 l -0.38,-0.688 C 31.172,12.285 30.938,11.876 30.701,11.459 28.84,8.195 26.523,4.134 29.47,0.076 l 1.618,1.175 c -2.188,3.014 -0.389,6.167 1.35,9.217 0.245,0.428 0.485,0.849 0.708,1.262 l 0.37,0.67 c 0.964,1.731 1.874,3.366 1.418,5.827 -0.394,2.131 -1.753,3.633 -3.068,5.084 -0.402,0.444 -0.803,0.886 -1.167,1.343 z"
       id="path18"
       inkscape:connector-curvature="0"
       style="fill:#000000" /><path
       d="M 43.35,16.962 41.483,16.246 C 42.16,14.479 41.669,13.522 40.855,11.937 40.653,11.542 40.441,11.129 40.239,10.683 38.879,7.691 38.88,5.386 38.881,2.197 l 0,-0.264 2,0 0,0.264 c -10e-4,3.156 -0.002,5.061 1.179,7.659 0.189,0.416 0.387,0.8 0.576,1.168 0.879,1.716 1.711,3.336 0.714,5.938 z"
       id="path20"
       inkscape:connector-curvature="0"
       style="fill:#000000" /><path
       d="m 22.943,17.047 c -0.068,-0.833 0.249,-1.575 0.527,-2.23 0.172,-0.404 0.335,-0.786 0.383,-1.124 0.104,-0.716 0.1,-1.544 -0.008,-1.932 C 23.521,10.602 22.921,9.552 22.284,8.44 21.377,6.856 20.439,5.217 20.226,3.121 l 1.99,-0.202 c 0.17,1.673 0.963,3.06 1.803,4.528 0.669,1.169 1.361,2.378 1.751,3.776 0.289,1.033 0.103,2.475 0.062,2.753 -0.084,0.596 -0.317,1.143 -0.523,1.625 -0.207,0.485 -0.401,0.943 -0.374,1.285 l -1.992,0.161 z"
       id="path22"
       inkscape:connector-curvature="0"
       style="fill:#000000" /></g></svg>