<?xml version="1.0" encoding="UTF-8" standalone="no"?>
<svg
   xmlns:dc="http://purl.org/dc/elements/1.1/"
   xmlns:cc="http://creativecommons.org/ns#"
   xmlns:rdf="http://www.w3.org/1999/02/22-rdf-syntax-ns#"
   xmlns:svg="http://www.w3.org/2000/svg"
   xmlns="http://www.w3.org/2000/svg"
   xmlns:sodipodi="http://sodipodi.sourceforge.net/DTD/sodipodi-0.dtd"
   xmlns:inkscape="http://www.inkscape.org/namespaces/inkscape"
   version="1.1"
   x="0px"
   y="0px"
   viewBox="0 0 102.32516 101.90144"
   enable-background="new 0 0 100 100"
   xml:space="preserve"
   id="svg2"
   inkscape:version="0.91 r13725"
   sodipodi:docname="Beehive.svg"
   width="102.32516"
   height="101.90144"><metadata
     id="metadata76"><rdf:RDF><cc:Work
         rdf:about=""><dc:format>image/svg+xml</dc:format><dc:type
           rdf:resource="http://purl.org/dc/dcmitype/StillImage" /><dc:title></dc:title></cc:Work></rdf:RDF></metadata><defs
     id="defs74" /><sodipodi:namedview
     pagecolor="#ffffff"
     bordercolor="#666666"
     borderopacity="1"
     objecttolerance="10"
     gridtolerance="10"
     guidetolerance="10"
     inkscape:pageopacity="0"
     inkscape:pageshadow="2"
     inkscape:window-width="690"
     inkscape:window-height="480"
     id="namedview72"
     showgrid="false"
     fit-margin-top="0"
     fit-margin-left="0"
     fit-margin-right="0"
     fit-margin-bottom="0"
     inkscape:zoom="2.36"
     inkscape:cx="49.467669"
     inkscape:cy="52.010041"
     inkscape:window-x="858"
     inkscape:window-y="178"
     inkscape:window-maximized="0"
     inkscape:current-layer="svg2" /><rect
     style="fill:#ffffff;fill-opacity:1;stroke:#000000;stroke-width:5.71500015;stroke-linecap:butt;stroke-linejoin:round;stroke-miterlimit:4;stroke-dasharray:none;stroke-opacity:1"
     id="rect4204"
     width="96.610168"
     height="96.18644"
     x="2.8575001"
     y="2.8575001" /><g
     id="g4"
     transform="translate(-0.53233051,-0.10860157)"><path
       d="m 77.545,50.172 c -0.913,-2.099 -1.879,-4.043 -2.898,-5.818 l -40.73,0 c -1.058,1.721 -2.081,3.653 -3.049,5.818 l 46.677,0 z"
       id="path6"
       inkscape:connector-curvature="0" /><path
       d="m 73.792,42.929 c -1.158,-1.862 -2.378,-3.527 -3.659,-4.986 l -31.304,0 c -1.347,1.396 -2.694,3.042 -3.999,4.986 l 38.962,0 z"
       id="path8"
       inkscape:connector-curvature="0" /><path
       d="M 80.828,59.195 C 80.64,58.57 80.443,57.944 80.24,57.318 c -0.631,-1.93 -1.298,-3.754 -2,-5.484 l -48.085,0 c -0.91,2.22 -1.763,4.665 -2.535,7.361 l 53.208,0 z"
       id="path10"
       inkscape:connector-curvature="0" /><path
       d="M 69.028,36.755 C 64.821,32.451 60.009,30.232 54.703,30.225 54.66,30.223 54.574,30.22 54.447,30.22 c -1.347,0 -7.752,0.352 -14.409,6.535 l 28.99,0 z"
       id="path12"
       inkscape:connector-curvature="0" /><path
       d="M 83.302,68.812 C 82.775,66.359 82.144,63.75 81.389,61.095 l -54.291,0 c -0.624,2.383 -1.187,4.952 -1.677,7.717 l 57.881,0 z"
       id="path14"
       inkscape:connector-curvature="0" /><path
       d="m 83.745,70.95 -58.682,0 c -0.625,3.952 -1.107,8.284 -1.411,13.04 -0.017,0.262 0.076,0.519 0.255,0.71 0.179,0.191 0.43,0.3 0.693,0.3 l 23.48,0 0.004,-5.758 c 0.145,-3.478 3.003,-6.255 6.516,-6.255 3.515,0 6.371,2.777 6.516,6.255 L 61.119,85 84.758,85 c 0.267,0 0.52,-0.111 0.7,-0.306 0.18,-0.196 0.269,-0.458 0.247,-0.723 -0.008,-0.085 -0.487,-5.604 -1.96,-13.021 z"
       id="path16"
       inkscape:connector-curvature="0" /><g
       id="g18"><path
         d="m 20.867,45.263 4.521,0 c 0.296,-0.331 0.6,-0.699 0.899,-1.102 l -6.294,0 c 0.261,0.37 0.552,0.739 0.874,1.102 z"
         id="path20"
         inkscape:connector-curvature="0" /><path
         d="m 22.031,37.309 c 0,0.531 -0.041,1.047 -0.125,1.546 l 2.496,0 C 24.324,38.356 24.293,37.84 24.299,37.309 l -2.268,0 z"
         id="path22"
         inkscape:connector-curvature="0" /><path
         d="m 25.556,41.976 -4.846,0 c -0.218,0.34 -0.462,0.67 -0.731,0.99 -0.047,0.065 -0.206,0.256 -0.299,0.362 l 6.88,0 c -0.085,-0.102 -0.179,-0.217 -0.219,-0.272 -0.295,-0.347 -0.555,-0.707 -0.785,-1.08 z"
         id="path24"
         inkscape:connector-curvature="0" /><path
         d="m 23.192,47.29 c 0,0 0.703,-0.492 1.608,-1.403 l -3.333,0 c 0.508,0.494 1.076,0.968 1.725,1.403 z"
         id="path26"
         inkscape:connector-curvature="0" /><path
         d="m 21.173,41.144 3.928,0 C 24.88,40.677 24.707,40.191 24.578,39.687 l -2.854,0 c -0.139,0.504 -0.322,0.99 -0.551,1.457 z"
         id="path28"
         inkscape:connector-curvature="0" /><path
         d="m 21.182,33.436 0.185,-0.039 0.056,0.181 c 0.312,1.01 0.501,1.976 0.575,2.9 l 2.34,0 c 0.08,-0.893 0.266,-1.824 0.567,-2.795 l 0.056,-0.182 0.186,0.04 c 0.024,0.005 1.032,0.227 2.315,0.837 -0.625,-0.761 -1.445,-1.353 -2.389,-1.696 0.969,-0.606 1.615,-1.68 1.615,-2.907 0,-0.94 -0.38,-1.792 -0.993,-2.412 l 1.222,-1.222 c 0.082,-0.081 0.082,-0.212 0,-0.293 -0.081,-0.081 -0.212,-0.081 -0.292,0 l -1.239,1.238 c -0.586,-0.464 -1.325,-0.744 -2.131,-0.744 -0.859,0 -1.643,0.318 -2.245,0.84 l -1.307,-1.307 c -0.081,-0.081 -0.212,-0.081 -0.292,0 -0.082,0.081 -0.082,0.211 0,0.293 l 1.303,1.304 c -0.553,0.609 -0.893,1.415 -0.893,2.303 0,1.208 0.625,2.268 1.568,2.878 -0.885,0.306 -1.667,0.832 -2.283,1.51 1.166,-0.526 2.054,-0.723 2.076,-0.727 z"
         id="path30"
         inkscape:connector-curvature="0" /><path
         d="m 21.083,33.889 c -1.001,0.264 -5.753,1.738 -6.962,6.146 l -0.047,0.183 c -0.011,0.039 -0.021,0.077 -0.031,0.117 l -0.004,0.074 c -0.267,1.683 0.881,3.283 2.562,3.566 0.998,0.168 2.011,-0.157 2.728,-0.875 0.035,-0.036 0.259,-0.301 0.321,-0.389 1.994,-2.348 2.472,-5.312 1.433,-8.822 z"
         id="path32"
         inkscape:connector-curvature="0" /><path
         d="m 32.291,40.512 -0.018,-0.117 10e-4,-0.002 C 32.268,40.37 32.262,40.346 32.255,40.321 l -0.046,-0.179 c -1.21,-4.41 -5.962,-5.885 -6.963,-6.148 -1.039,3.512 -0.561,6.474 1.423,8.807 0.074,0.102 0.298,0.368 0.333,0.404 0.717,0.716 1.728,1.043 2.728,0.875 1.679,-0.285 2.827,-1.886 2.561,-3.568 z"
         id="path34"
         inkscape:connector-curvature="0" /></g><g
       id="g36"><path
         d="m 37.893,29.159 3.399,0 c 0.222,-0.249 0.45,-0.526 0.676,-0.828 l -4.732,0 c 0.197,0.278 0.415,0.555 0.657,0.828 z"
         id="path38"
         inkscape:connector-curvature="0" /><path
         d="m 38.768,23.179 c 0,0.399 -0.03,0.787 -0.093,1.163 l 1.876,0 c -0.059,-0.375 -0.083,-0.764 -0.077,-1.163 l -1.706,0 z"
         id="path40"
         inkscape:connector-curvature="0" /><path
         d="m 41.418,26.688 -3.643,0 c -0.164,0.256 -0.347,0.504 -0.55,0.744 -0.036,0.049 -0.155,0.193 -0.225,0.272 l 5.172,0 C 42.108,27.628 42.037,27.54 42.007,27.499 41.788,27.24 41.592,26.968 41.418,26.688 Z"
         id="path42"
         inkscape:connector-curvature="0" /><path
         d="m 39.642,30.683 c 0,0 0.528,-0.371 1.209,-1.054 l -2.507,0 c 0.382,0.371 0.81,0.727 1.298,1.054 z"
         id="path44"
         inkscape:connector-curvature="0" /><path
         d="m 38.124,26.062 2.953,0 c -0.166,-0.351 -0.296,-0.717 -0.393,-1.095 l -2.146,0 c -0.104,0.379 -0.242,0.744 -0.414,1.095 z"
         id="path46"
         inkscape:connector-curvature="0" /><path
         d="m 38.129,20.267 0.14,-0.029 0.042,0.135 c 0.235,0.76 0.377,1.486 0.432,2.18 l 1.76,0 c 0.06,-0.67 0.2,-1.371 0.427,-2.101 l 0.042,-0.137 0.139,0.03 c 0.019,0.004 0.777,0.171 1.741,0.629 -0.47,-0.573 -1.087,-1.018 -1.796,-1.275 0.728,-0.456 1.214,-1.263 1.214,-2.186 0,-0.707 -0.286,-1.348 -0.746,-1.814 l 0.918,-0.919 c 0.061,-0.06 0.061,-0.159 0,-0.219 -0.061,-0.062 -0.159,-0.062 -0.22,0 l -0.932,0.932 c -0.44,-0.35 -0.996,-0.56 -1.602,-0.56 -0.646,0 -1.235,0.239 -1.688,0.631 l -0.982,-0.982 c -0.061,-0.061 -0.159,-0.061 -0.22,0 -0.061,0.062 -0.061,0.16 0,0.22 l 0.98,0.98 c -0.416,0.458 -0.671,1.064 -0.671,1.731 0,0.908 0.471,1.705 1.179,2.165 -0.665,0.229 -1.253,0.625 -1.716,1.134 0.876,-0.394 1.543,-0.541 1.559,-0.545 z"
         id="path48"
         inkscape:connector-curvature="0" /><path
         d="m 38.056,20.607 c -0.753,0.198 -4.326,1.307 -5.235,4.62 l -0.035,0.138 c -0.008,0.029 -0.016,0.058 -0.023,0.088 l -0.003,0.055 c -0.201,1.266 0.662,2.469 1.925,2.683 0.751,0.126 1.512,-0.119 2.051,-0.659 0.027,-0.026 0.195,-0.226 0.243,-0.292 1.499,-1.765 1.858,-3.992 1.077,-6.633 z"
         id="path50"
         inkscape:connector-curvature="0" /><path
         d="m 46.482,25.587 -0.015,-0.088 0.002,-10e-4 C 46.464,25.479 46.46,25.462 46.455,25.444 l -0.034,-0.135 c -0.911,-3.316 -4.483,-4.425 -5.235,-4.623 -0.781,2.64 -0.423,4.867 1.069,6.621 0.056,0.077 0.224,0.277 0.25,0.304 0.54,0.539 1.299,0.785 2.051,0.657 1.263,-0.213 2.127,-1.416 1.926,-2.681 z"
         id="path52"
         inkscape:connector-curvature="0" /></g><g
       id="g54"><path
         d="m 76.115,36.664 3.101,0 c 0.203,-0.227 0.412,-0.479 0.616,-0.755 l -4.316,0 c 0.178,0.254 0.378,0.507 0.599,0.755 z"
         id="path56"
         inkscape:connector-curvature="0" /><path
         d="m 76.913,31.208 c 0,0.364 -0.027,0.718 -0.085,1.061 l 1.711,0 c -0.052,-0.342 -0.074,-0.696 -0.07,-1.061 l -1.556,0 z"
         id="path58"
         inkscape:connector-curvature="0" /><path
         d="m 79.332,34.41 -3.326,0 c -0.147,0.234 -0.315,0.46 -0.501,0.679 -0.032,0.045 -0.141,0.176 -0.203,0.248 l 4.719,0 c -0.059,-0.069 -0.123,-0.148 -0.15,-0.187 -0.202,-0.237 -0.382,-0.484 -0.539,-0.74 z"
         id="path60"
         inkscape:connector-curvature="0" /><path
         d="m 77.711,38.055 c 0,0 0.482,-0.338 1.103,-0.963 l -2.286,0 c 0.347,0.34 0.738,0.665 1.183,0.963 z"
         id="path62"
         inkscape:connector-curvature="0" /><path
         d="m 76.325,33.839 2.694,0 c -0.152,-0.321 -0.27,-0.654 -0.358,-0.999 l -1.959,0 c -0.094,0.345 -0.22,0.678 -0.377,0.999 z"
         id="path64"
         inkscape:connector-curvature="0" /><path
         d="m 76.331,28.551 0.127,-0.026 0.038,0.124 c 0.215,0.692 0.345,1.355 0.395,1.989 l 1.605,0 c 0.055,-0.612 0.183,-1.251 0.39,-1.918 l 0.039,-0.124 0.127,0.027 c 0.017,0.003 0.707,0.155 1.588,0.574 -0.429,-0.522 -0.991,-0.929 -1.638,-1.163 0.663,-0.417 1.106,-1.153 1.106,-1.995 0,-0.645 -0.26,-1.23 -0.681,-1.655 l 0.838,-0.838 c 0.056,-0.056 0.056,-0.145 0,-0.201 -0.056,-0.055 -0.145,-0.055 -0.2,0 l -0.851,0.85 c -0.401,-0.319 -0.909,-0.511 -1.462,-0.511 -0.589,0 -1.127,0.218 -1.539,0.576 l -0.896,-0.896 c -0.056,-0.055 -0.145,-0.055 -0.2,0 -0.055,0.055 -0.056,0.145 0,0.2 l 0.893,0.895 c -0.378,0.418 -0.611,0.971 -0.611,1.58 0,0.828 0.43,1.555 1.075,1.975 -0.606,0.21 -1.144,0.57 -1.565,1.036 0.798,-0.362 1.406,-0.495 1.422,-0.499 z"
         id="path66"
         inkscape:connector-curvature="0" /><path
         d="m 76.264,28.862 c -0.687,0.181 -3.947,1.192 -4.775,4.216 l -0.033,0.125 c -0.008,0.027 -0.015,0.053 -0.021,0.08 l -0.003,0.052 c -0.183,1.154 0.604,2.251 1.757,2.446 0.685,0.116 1.38,-0.108 1.872,-0.601 0.023,-0.024 0.178,-0.207 0.22,-0.267 1.366,-1.61 1.696,-3.643 0.983,-6.051 z"
         id="path68"
         inkscape:connector-curvature="0" /><path
         d="m 83.952,33.405 -0.013,-0.081 0,-10e-4 C 83.935,33.307 83.931,33.29 83.926,33.274 l -0.03,-0.124 c -0.83,-3.025 -4.091,-4.036 -4.777,-4.217 -0.713,2.408 -0.386,4.44 0.976,6.041 0.052,0.07 0.204,0.252 0.229,0.277 0.492,0.491 1.185,0.716 1.87,0.6 1.153,-0.194 1.941,-1.291 1.758,-2.446 z"
         id="path70"
         inkscape:connector-curvature="0" /></g></g></svg>