<?xml version="1.0" encoding="UTF-8" standalone="no"?>
<svg
   xmlns:dc="http://purl.org/dc/elements/1.1/"
   xmlns:cc="http://creativecommons.org/ns#"
   xmlns:rdf="http://www.w3.org/1999/02/22-rdf-syntax-ns#"
   xmlns:svg="http://www.w3.org/2000/svg"
   xmlns="http://www.w3.org/2000/svg"
   xmlns:sodipodi="http://sodipodi.sourceforge.net/DTD/sodipodi-0.dtd"
   xmlns:inkscape="http://www.inkscape.org/namespaces/inkscape"
   version="1.1"
   x="0px"
   y="0px"
   viewBox="0 0 120.61488 124.00471"
   enable-background="new 0 0 100 100"
   xml:space="preserve"
   id="svg2"
   inkscape:version="0.91 r13725"
   sodipodi:docname="beehives.svg"
   width="120.61488"
   height="124.00471"><metadata
     id="metadata10"><rdf:RDF><cc:Work
         rdf:about=""><dc:format>image/svg+xml</dc:format><dc:type
           rdf:resource="http://purl.org/dc/dcmitype/StillImage" /><dc:title></dc:title></cc:Work></rdf:RDF></metadata><defs
     id="defs8" /><sodipodi:namedview
     pagecolor="#ffffff"
     bordercolor="#666666"
     borderopacity="1"
     objecttolerance="10"
     gridtolerance="10"
     guidetolerance="10"
     inkscape:pageopacity="0"
     inkscape:pageshadow="2"
     inkscape:window-width="1524"
     inkscape:window-height="895"
     id="namedview6"
     showgrid="false"
     fit-margin-top="0"
     fit-margin-left="0"
     fit-margin-right="0"
     fit-margin-bottom="0"
     inkscape:zoom="2.36"
     inkscape:cx="58.824391"
     inkscape:cy="62.63795"
     inkscape:window-x="0"
     inkscape:window-y="0"
     inkscape:window-maximized="0"
     inkscape:current-layer="svg2" /><rect
     style="opacity:1;fill:#ffffff;fill-opacity:1;stroke:#8f0000;stroke-width:3.939;stroke-linecap:butt;stroke-linejoin:round;stroke-miterlimit:4;stroke-dasharray:none;stroke-opacity:1"
     id="rect4138"
     width="116.67588"
     height="120.06571"
     x="1.9694999"
     y="1.9694999" /><path
     d="m 90.572391,72.345762 c -0.495,0.243 -4.477,1.65 -30.091,1.65 -28.395,0 -32.61,-1.444 -33.108,-1.679 -0.041,-0.032 -0.085,-0.062 -0.129,-0.087 -0.181,-0.102 -4.408,-2.526 -4.408,-8.291 0,-5.888 3.599,-7.05 4.555,-7.254 0.353,0.104 0.706,0.178 0.993,0.188 0.722,0.085 7.483,0.81 30.54,0.81 23.078,0 29.922,-0.726 30.641,-0.81 0.258,-0.009 0.587,-0.075 0.932,-0.167 1.091,0.26 4.476,1.526 4.476,7.233 0,5.328 -3.469,7.799 -4.204,8.275 -0.07,0.039 -0.138,0.083 -0.197,0.132 z m -64.73,-24.821 c -1.356,4.975 0.562,6.59 1.877,7.087 0.026,0.007 0.051,0.033 0.076,0.042 0.343,0.125 0.601,0.164 0.664,0.164 0.042,0 0.089,0.008 0.13,0.013 0.063,0.008 6.557,0.802 30.336,0.802 23.859,0 30.377,-0.792 30.441,-0.8 0.042,-0.005 0.085,-0.007 0.128,-0.007 0.04,0 0.178,-0.016 0.376,-0.062 0.131,-0.076 0.273,-0.126 0.435,-0.138 1.304,-0.521 3.139,-2.433 1.806,-7.33 -1.591,-5.846 -5.312,-6.929 -5.729,-6.929 l -54.493,0 c -0.066,0 -4.389,1.092 -6.047,7.158 z m 1.042,26.748 c -0.67,0.592 -2.13,2.566 -0.539,7.781 1.558,5.139 4.165,6.062 4.19,6.071 0.063,0.021 0.142,0.054 0.2,0.087 0.035,0.018 5.202,2.601 28.241,2.601 23.075,0 28.421,-2.591 28.474,-2.616 0.056,-0.03 0.127,-0.057 0.187,-0.076 0.01,-0.004 2.616,-0.928 4.174,-6.064 1.628,-5.339 0.064,-7.278 -0.592,-7.825 -3.832,1.482 -18.431,1.813 -30.737,1.813 -13.442,0 -29.402,-0.324 -33.598,-1.772 z m 4.278,-37.561 c -0.246,0.763 -0.042,1.344 0.102,1.623 0.182,0.351 0.416,0.527 0.561,0.574 l 54.749,0.014 c 0.072,0 0.284,-0.093 0.492,-0.38 0.134,-0.186 0.546,-0.865 0.227,-1.826 -2.293,-7.015 -7.519,-9.008 -8.543,-9.341 -0.036,-0.014 -1.09,-0.009 -1.116,-0.009 l -36.798,0 c -0.041,0 -1.117,0.006 -1.179,0.026 -1.02,0.335 -6.205,2.33 -8.495,9.319 z m 1.234,60.862 c 4.136,4.364998 8.229,7.228998 26.683,7.228998 18.449,0 22.546,-2.863 26.691,-7.228998 3.015,-3.188 2.286,-5.976 1.711,-7.2 -2.329,0.776 -9.604,2.488 -28.504,2.488 -18.776,0 -25.967,-1.693 -28.294,-2.479 -0.565,1.24 -1.272,4.042 1.713,7.191 z m 45.127,-75.364 c -2.011,-1.807 -8.16,-3.391 -10.839,-3.637 -2.458,-0.225 -12.074,-0.15 -15.012,-0.008 -2.838,0.146 -8.805,1.864 -10.794,3.651 -1.533,1.377 -1.307,2.151 -1.021,3.151 l 38.682,0 c 0.286,-1 0.522,-1.777 -1.016,-3.157 z m 12.638,32.473 c 0.046,-0.017 0.095,-0.038 0.143,-0.056 -0.161,0.011 -0.304,0.062 -0.435,0.138 0.086,-0.022 0.181,-0.047 0.292,-0.082 z"
     id="path4"
     style="fill:#8f0000;fill-opacity:1"
     inkscape:connector-curvature="0" /></svg>