<?xml version="1.0" encoding="UTF-8" standalone="no"?>
<svg
   xmlns:dc="http://purl.org/dc/elements/1.1/"
   xmlns:cc="http://creativecommons.org/ns#"
   xmlns:rdf="http://www.w3.org/1999/02/22-rdf-syntax-ns#"
   xmlns:svg="http://www.w3.org/2000/svg"
   xmlns="http://www.w3.org/2000/svg"
   xmlns:sodipodi="http://sodipodi.sourceforge.net/DTD/sodipodi-0.dtd"
   xmlns:inkscape="http://www.inkscape.org/namespaces/inkscape"
   version="1.1"
   x="0px"
   y="0px"
   viewBox="0 0 135.22888 95.645557"
   enable-background="new 0 0 100 72.644"
   xml:space="preserve"
   id="svg2"
   inkscape:version="0.91 r13725"
   sodipodi:docname="Bog_hazard.svg"
   width="135.22888"
   height="95.645554"><metadata
     id="metadata20"><rdf:RDF><cc:Work
         rdf:about=""><dc:format>image/svg+xml</dc:format><dc:type
           rdf:resource="http://purl.org/dc/dcmitype/StillImage" /><dc:title></dc:title></cc:Work></rdf:RDF></metadata><defs
     id="defs18" /><sodipodi:namedview
     pagecolor="#ffffff"
     bordercolor="#666666"
     borderopacity="1"
     objecttolerance="10"
     gridtolerance="10"
     guidetolerance="10"
     inkscape:pageopacity="0"
     inkscape:pageshadow="2"
     inkscape:window-width="1920"
     inkscape:window-height="1018"
     id="namedview16"
     showgrid="false"
     fit-margin-top="0"
     fit-margin-left="0"
     fit-margin-right="0"
     fit-margin-bottom="0"
     inkscape:zoom="2.88"
     inkscape:cx="65.704722"
     inkscape:cy="52.026722"
     inkscape:window-x="-8"
     inkscape:window-y="-8"
     inkscape:window-maximized="1"
     inkscape:current-layer="svg2" /><rect
     style="fill:#ffffff;fill-opacity:1;stroke:#000000;stroke-width:5.71500015;stroke-linecap:butt;stroke-linejoin:round;stroke-miterlimit:4;stroke-dasharray:none;stroke-opacity:1"
     id="rect4148"
     width="129.51389"
     height="89.930557"
     x="2.8575001"
     y="2.8575001" /><path
     d="m 76.992722,43.337836 c -0.349,-1.309 -0.101,-6.09 -0.449,-10.378 l -0.598,-5.56 c -0.823,-7.655 -0.823,-7.655 -9.473,-7.655 l -14.418,0 c -8.65,0 -8.65,0 -9.473,7.655 l -0.598,5.561 c -0.348,4.288 -0.1,9.069 -0.449,10.378 -0.313,1.173 -0.528,1.981 -0.603,2.541 0.714,-0.181 1.543,-0.184 2.474,-0.184 l 31.718,0 c 0.931,0 1.76,0.003 2.474,0.184 -0.077,-0.561 -0.292,-1.37 -0.605,-2.542 z m -32.618,-11.045 0.52,-3.782 c 0.716,-5.207 0.716,-5.207 8.234,-5.207 l 12.531,0 c 7.519,0 7.519,0 8.234,5.207 l 0.52,3.782 c 0.644,6.211 0.644,6.211 -7.804,6.211 l -14.431,0 c -8.449,-10e-4 -8.449,-10e-4 -7.804,-6.211 z"
     id="path4"
     inkscape:connector-curvature="0" /><path
     d="m 41.023722,52.040836 c 0.038,0.272 0.095,0.673 0.143,0.84 0.238,0.401 0.531,0.839 0.85,1.277 -0.032,-0.173 -0.054,-0.351 -0.054,-0.534 0,-1.593 1.291,-2.884 2.884,-2.884 l 2.162,0 c 1.593,0 2.884,1.291 2.884,2.884 0,1.593 -1.291,2.884 -2.884,2.884 l -2.162,0 c -0.352,0 -0.684,-0.072 -0.996,-0.187 0.395,0.386 0.758,0.685 1.03,0.804 1.293,0.564 3.352,0.85 6.121,0.85 3.383,0 7.165,-0.414 10.501,-0.78 1.711,-0.187 3.328,-0.364 4.619,-0.45 0.448,-0.03 0.995,-0.043 1.772,-0.043 0.321,0 0.658,0.002 1.006,0.004 0.365,0.002 0.742,0.005 1.127,0.005 1.218,0 4.772,0 6.074,-0.751 0.039,-0.252 0.064,-0.643 0.081,-0.926 -0.495,0.876 -1.423,1.474 -2.501,1.474 l -2.162,0 c -1.593,0 -2.884,-1.291 -2.884,-2.884 0,-1.593 1.291,-2.884 2.884,-2.884 l 2.162,0 c 1.363,0 2.499,0.949 2.8,2.221 0.256,-0.842 0.754,-1.589 1.809,-1.847 0.135,-0.033 0.275,-0.039 0.414,-0.05 -0.119,-3.924 -0.78,-3.928 -3.581,-3.928 l -31.718,0 c -2.246,0 -3.114,0.01 -3.432,2.032 0.745,0.787 0.932,2.028 1.051,2.873 z"
     id="path8"
     inkscape:connector-curvature="0" /><path
     d="m 84.385722,62.089836 c 0.091,0.36 0.805,1.495 1.409,2.161 1.496,1.649 4.472,4.053 5.924,4.565 0.601,0.212 1.224,0.48 1.83,0.742 l 0.342,-2.054 c 0.619,-3.713 0.305,-4.995 -2.587,-5.477 l -1.816,-0.303 3.13,-18.768 c 0,0 1.567,0.253 1.67,0.253 1.328,0 2.488,-1.401 2.699,-2.66 l 0.025,-0.151 c 0.176,-1.051 -0.397,-1.58 -0.755,-1.803 -0.406,-0.253 -0.891,-0.348 -1.438,-0.44 l -4.54,-0.757 c -0.335,-0.056 -0.661,-0.106 -0.978,-0.106 -1,0 -1.665,0.552 -1.825,1.516 l -0.025,0.151 c -0.104,0.623 0.009,1.377 0.303,2.017 0.374,0.816 0.973,1.33 1.685,1.449 l 1.363,0.227 -3.13,18.768 -1.817,-0.303 c -0.648,-0.108 -1.181,-0.131 -1.634,-0.068 0.044,0.363 0.092,0.718 0.165,1.041 z m 5.356,-21.48 c -0.038,-0.006 -0.183,-0.113 -0.315,-0.401 -0.161,-0.35 -0.197,-0.727 -0.16,-0.946 l 0.024,-0.127 c 0.168,0.013 0.425,0.038 0.684,0.08 l 4.54,0.757 c 0.16,0.027 0.495,0.083 0.676,0.146 l -0.022,0.129 c -0.088,0.527 -0.64,1.12 -0.882,1.12 l -4.545,-0.758 z"
     id="path10"
     inkscape:connector-curvature="0" /><path
     d="m 110.13572,76.308836 c -0.829,-1.485 -2.133,-3.256 -2.684,-3.453 -2.384,-0.855 -7.596998,-0.165 -10.128998,-0.23 -2.015,-0.052 -4.315,-1.402 -6.216,-2.072 -1.976,-0.696 -5.269,-3.513 -6.676,-5.065 -0.59,-0.651 -1.65,-2.136 -1.842,-2.993 -0.456,-2.034 -0.264,-4.467 -0.921,-6.446 -0.339,-1.022 -1.896,-3.402 -2.942,-3.146 -1.084,0.265 -0.356,3.57 -1.202,4.298 -2.155,1.852 -8.445,1.193 -11.28,1.381 -5.513,0.365 -17.036,2.439 -22.1,0.23 -1.568,-0.684 -3.739,-3.588 -4.604,-5.065 -0.46,-0.785 -0.26,-3.27 -1.151,-3.453 -2.037,-0.418 -7.388,5.797 -8.978,7.136 -1.503,1.265 -5.569,2.521 -6.676,4.144 -1.418,2.08 -1.889,10.716 -2.03,14.734 l 89.430998,0 z"
     id="path12"
     inkscape:connector-curvature="0" /><path
     d="m 110.21472,68.711836 c -1.679,-4.106 -2.936,-11.275 -7.367,-11.05 -1.746,0.089 -5.441998,1.767 -8.369998,3.697 1.832,1.466 1.648,3.952 1.231,6.45 l -0.343,2.054 -0.07,0.419 c 0.749,0.281 1.464,0.488 2.074,0.504 0.102,0.003 0.209,0.004 0.321,0.004 0.676,0 1.547,-0.043 2.468998,-0.089 1.104,-0.055 2.356,-0.117 3.54,-0.117 1.957,0 3.347,0.172 4.374,0.54 0.9,0.323 1.882,1.518 2.624,2.6 0.037,-2.022 -0.06,-3.976 -0.483,-5.012 z"
     id="path14"
     inkscape:connector-curvature="0" /></svg>