<?xml version="1.0" encoding="UTF-8" standalone="no"?>
<svg
   xmlns:dc="http://purl.org/dc/elements/1.1/"
   xmlns:cc="http://creativecommons.org/ns#"
   xmlns:rdf="http://www.w3.org/1999/02/22-rdf-syntax-ns#"
   xmlns:svg="http://www.w3.org/2000/svg"
   xmlns="http://www.w3.org/2000/svg"
   xmlns:sodipodi="http://sodipodi.sourceforge.net/DTD/sodipodi-0.dtd"
   xmlns:inkscape="http://www.inkscape.org/namespaces/inkscape"
   version="1.1"
   x="0px"
   y="0px"
   viewBox="0 0 96.816689 74.782791"
   id="svg2"
   inkscape:version="0.91 r13725"
   sodipodi:docname="Bridge.svg"
   width="96.816689"
   height="74.782791">
  <metadata
     id="metadata12">
    <rdf:RDF>
      <cc:Work
         rdf:about="">
        <dc:format>image/svg+xml</dc:format>
        <dc:type
           rdf:resource="http://purl.org/dc/dcmitype/StillImage" />
        <dc:title></dc:title>
      </cc:Work>
    </rdf:RDF>
  </metadata>
  <defs
     id="defs10" />
  <sodipodi:namedview
     pagecolor="#ffffff"
     bordercolor="#666666"
     borderopacity="1"
     objecttolerance="10"
     gridtolerance="10"
     guidetolerance="10"
     inkscape:pageopacity="0"
     inkscape:pageshadow="2"
     inkscape:window-width="690"
     inkscape:window-height="480"
     id="namedview8"
     showgrid="false"
     fit-margin-top="0"
     fit-margin-left="0"
     fit-margin-right="0"
     fit-margin-bottom="0"
     inkscape:zoom="2.36"
     inkscape:cx="45.230381"
     inkscape:cy="38.450716"
     inkscape:window-x="771"
     inkscape:window-y="108"
     inkscape:window-maximized="0"
     inkscape:current-layer="svg2" />
  <rect
     style="fill:#ffffff;fill-opacity:1;stroke:#000000;stroke-width:6.82739353;stroke-linecap:butt;stroke-linejoin:round;stroke-miterlimit:4;stroke-dasharray:none;stroke-opacity:1"
     id="rect4140"
     width="89.989296"
     height="67.955399"
     x="3.4136968"
     y="3.4136968" />
  <g
     transform="translate(-4.7696195,-966.0301)"
     id="g4">
    <path
       style="color:#000000;text-indent:0;text-transform:none;direction:ltr;block-progression:tb;baseline-shift:baseline;display:inline;overflow:visible;visibility:visible;fill:#000000;fill-opacity:1;stroke:none;marker:none;enable-background:accumulate"
       d="m 51.462353,988.87267 c -4.025499,0.024 -7.984196,1.38868 -11.566128,3.92449 -0.02672,0.024 -0.09352,0.0174 -0.120244,0.0414 a 1.336177,1.336177 0 0 0 -0.668022,0.50102 c -3.082252,2.37147 -5.818469,5.69291 -8.057677,9.85332 -2.224513,-5e-4 -1.857101,0 -4.384895,0 a 2.0042655,2.0042655 0 1 0 0,4.0082 c 1.444263,0 1.162358,-2e-4 2.505082,0 -0.595876,1.4711 -1.155678,2.9974 -1.628637,4.6343 a 2.0220991,2.0220991 0 1 0 3.883878,1.1274 c 0.602555,-2.0911 1.29997,-4.0088 2.0869,-5.7617 16.94771,0 26.985404,0.013 35.906166,0 0.765553,1.743 1.45896,3.6355 2.046819,5.72 a 2.0157428,2.0157428 0 0 0 3.882542,-1.0857 c -0.460935,-1.6334 -1.006041,-3.1683 -1.58722,-4.6343 1.090212,0 3.055531,0 4.216553,0 a 2.0042655,2.0042655 0 1 0 0,-4.0082 c -1.666046,0 -4.521171,0 -6.053612,0 -4.963402,-9.41804 -12.586865,-14.36902 -20.457497,-14.32065 z m -1.461632,4.0915 a 1.336177,1.336177 0 0 0 -0.04008,0.41765 l 0,9.76968 a 1.336177,1.336177 0 0 0 0,0.041 c -0.845715,-6e-4 -1.89451,7e-4 -2.797675,0 l 0,-9.64448 c 0.937903,-0.28484 1.895846,-0.48391 2.839092,-0.58465 z m 2.587916,0 c 0.999361,0.0708 2.013418,0.18317 3.006098,0.45933 l 0,9.7698 c -0.80029,-4e-4 -2.117629,6e-4 -2.963344,0 a 1.336177,1.336177 0 0 0 0,-0.041 l 0,-9.76968 a 1.336177,1.336177 0 0 0 -0.04008,-0.41765 z m 5.678185,1.50305 c 1.010049,0.48485 2.000057,1.07698 2.96468,1.79537 l 0,6.93071 c -0.745512,0 -2.193783,3e-4 -2.96468,0 l 0,-8.72608 z m -13.77728,0.167 0,8.55908 c -1.026081,-8e-4 -1.853092,7e-4 -2.96468,0 l 0,-6.72202 c 0.961951,-0.73896 1.957304,-1.32762 2.96468,-1.83706 z m 19.414047,4.00809 c 1.22248,1.2842 2.367469,2.81269 3.424279,4.55099 -0.844379,8e-4 -2.577227,-2e-4 -3.424279,0 l 0,-4.55099 z m -25.050814,0.3341 0,4.21689 c -1.29997,-8e-4 -1.788962,7e-4 -3.21452,0 0.987336,-1.5925 2.085563,-3.0024 3.21452,-4.21689 z"
       visibility="visible"
       display="inline"
       overflow="visible"
       id="path6"
       inkscape:connector-curvature="0" />
  </g>
</svg>
