<?xml version="1.0" encoding="UTF-8" standalone="no"?>
<svg
   xmlns:dc="http://purl.org/dc/elements/1.1/"
   xmlns:cc="http://creativecommons.org/ns#"
   xmlns:rdf="http://www.w3.org/1999/02/22-rdf-syntax-ns#"
   xmlns:svg="http://www.w3.org/2000/svg"
   xmlns="http://www.w3.org/2000/svg"
   xmlns:sodipodi="http://sodipodi.sourceforge.net/DTD/sodipodi-0.dtd"
   xmlns:inkscape="http://www.inkscape.org/namespaces/inkscape"
   version="1.1"
   x="0px"
   y="0px"
   viewBox="0 0 91 91"
   xml:space="preserve"
   id="svg2"
   inkscape:version="0.91 r13725"
   sodipodi:docname="Burn Pile.svg"
   width="91"
   height="91"><metadata
     id="metadata10"><rdf:RDF><cc:Work
         rdf:about=""><dc:format>image/svg+xml</dc:format><dc:type
           rdf:resource="http://purl.org/dc/dcmitype/StillImage" /><dc:title></dc:title></cc:Work></rdf:RDF></metadata><defs
     id="defs8" /><sodipodi:namedview
     pagecolor="#ffffff"
     bordercolor="#666666"
     borderopacity="1"
     objecttolerance="10"
     gridtolerance="10"
     guidetolerance="10"
     inkscape:pageopacity="0"
     inkscape:pageshadow="2"
     inkscape:window-width="1418"
     inkscape:window-height="863"
     id="namedview6"
     showgrid="false"
     fit-margin-top="0"
     fit-margin-left="0"
     fit-margin-right="0"
     fit-margin-bottom="0"
     inkscape:zoom="2.36"
     inkscape:cx="45.5"
     inkscape:cy="45.5"
     inkscape:window-x="0"
     inkscape:window-y="0"
     inkscape:window-maximized="0"
     inkscape:current-layer="svg2" /><rect
     style="opacity:1;fill:#ffffff;fill-opacity:1;stroke:none;stroke-width:0.64099997;stroke-linecap:butt;stroke-linejoin:round;stroke-miterlimit:4;stroke-dasharray:none;stroke-opacity:1"
     id="rect4138"
     width="55.143372"
     height="61.499306"
     x="17.928312"
     y="13.691025" /><path
     d="m 45.5,0.5 c -24.9,0 -45,20.1 -45,45 0,24.9 20.1,45 45,45 24.9,0 45,-20.1 45,-45 0,-24.9 -20.1,-45 -45,-45 z M 32.2,28.8 c 1.1,-0.7 1.9,0 1.5,0.5 -3.4,8.2 -0.9,16.2 5,17.8 C 37,43 36.2,38.3 36.7,33.5 37.5,26.4 41,20.4 46,16.1 c 0.5,-0.4 0.9,-0.7 1.3,-0.6 0.3,0.1 0.5,0.3 0.4,0.7 -0.4,1.4 -0.7,2.9 -0.8,4.3 -0.8,6 0.6,11.6 3.3,16.4 4.1,0 5.9,-4.8 6.3,-8.1 0,-0.8 0.6,-1.3 1.8,-0.4 5.3,3.9 8.9,10.2 8.9,17.3 0,11.9 -9.7,21.6 -21.7,21.6 -11.9,0.1 -21.6,-9.6 -21.6,-21.5 0,-6.9 3.3,-13 8.3,-17 z m 35.7,46.7 -44.8,0 c -1.3,0 -2.4,-1 -2.4,-2.3 0,-1.3 1.1,-2.4 2.4,-2.4 l 44.8,0 c 1.3,0 2.3,1.1 2.3,2.4 0.1,1.2 -0.9,2.3 -2.3,2.3 z"
     id="path4"
     style="fill:#ff6600;stroke:#000000;stroke-opacity:1"
     inkscape:connector-curvature="0" /></svg>