<?xml version="1.0" encoding="UTF-8" standalone="no"?>
<svg
   xmlns:dc="http://purl.org/dc/elements/1.1/"
   xmlns:cc="http://creativecommons.org/ns#"
   xmlns:rdf="http://www.w3.org/1999/02/22-rdf-syntax-ns#"
   xmlns:svg="http://www.w3.org/2000/svg"
   xmlns="http://www.w3.org/2000/svg"
   xmlns:sodipodi="http://sodipodi.sourceforge.net/DTD/sodipodi-0.dtd"
   xmlns:inkscape="http://www.inkscape.org/namespaces/inkscape"
   version="1.1"
   x="0px"
   y="0px"
   viewBox="0 0 101.39285 67.269142"
   enable-background="new 0 0 100 100"
   xml:space="preserve"
   id="svg2"
   inkscape:version="0.91 r13725"
   sodipodi:docname="Cow.svg"
   width="101.39285"
   height="67.269142"><metadata
     id="metadata10"><rdf:RDF><cc:Work
         rdf:about=""><dc:format>image/svg+xml</dc:format><dc:type
           rdf:resource="http://purl.org/dc/dcmitype/StillImage" /><dc:title></dc:title></cc:Work></rdf:RDF></metadata><defs
     id="defs8" /><sodipodi:namedview
     pagecolor="#ffffff"
     bordercolor="#666666"
     borderopacity="1"
     objecttolerance="10"
     gridtolerance="10"
     guidetolerance="10"
     inkscape:pageopacity="0"
     inkscape:pageshadow="2"
     inkscape:window-width="1199"
     inkscape:window-height="830"
     id="namedview6"
     showgrid="false"
     fit-margin-top="0"
     fit-margin-left="0"
     fit-margin-right="0"
     fit-margin-bottom="0"
     inkscape:zoom="2.36"
     inkscape:cx="50.692844"
     inkscape:cy="33.566549"
     inkscape:window-x="0"
     inkscape:window-y="0"
     inkscape:window-maximized="0"
     inkscape:current-layer="svg2" /><path
     d="m 100.65584,44.601593 -0.021,-0.09 c -0.022,-0.09 -0.051,-0.178 -0.108,-0.318 -0.046,-0.104 -0.101,-0.206 -0.169,-0.315 -0.197,-0.313 -0.457996,-0.604 -0.761996,-0.941 -0.507,-0.563 -1.082,-1.204 -1.571,-2.183 -0.481,-0.961 -0.784,-2.054 -0.924,-3.341 -0.591,-5.401 -0.03,-8.522 0.99,-11.538 0.117,-0.316 0.231,-0.628 0.342,-0.938 l 0.021,-0.062 c 0.22,-0.618 0.421,-1.218 0.597,-1.789 l 0.034,-0.114 c 0.072,-0.235 0.139,-0.465 0.201,-0.689 l 0.047,-0.167 c 0.07,-0.256 0.135,-0.505 0.191,-0.748 0.056,-0.238 0.102,-0.464 0.143,-0.682 l 0.029,-0.17 c 0.027,-0.162 0.051,-0.316 0.07,-0.484 l 0.018,-0.15 c 0.02,-0.193 0.031,-0.378 0.031,-0.546 0,-0.28 0.004,-0.582 0.008,-0.9 0.034,-2.827 0.086,-7.099 -2.334,-9.549 -1.499,-1.517 -3.76,-2.136 -6.722,-1.836 -3.267,0.329 -6.706,0.821 -10.346,1.341 -6.911,0.987 -14.056,2.008 -20.738,2.008 -5.699,0 -8.964,-0.773 -11.846,-1.455 -2.307,-0.546 -4.298,-1.018 -7.064,-1.018 -1.745,0 -3.361,0.093 -4.924,0.184 -1.376,0.08 -2.676,0.155 -3.913,0.155 -2.723,0 -4.618,-0.375 -6.336,-1.253 -0.267,-0.136 -0.548,-0.297 -0.867,-0.498 -0.274,-0.173 -0.547,-0.358 -0.816,-0.553 -0.727,-0.525 -1.431,-1.113 -2.089,-1.68 0.458,-1.16 0.588,-2.644 0.594,-2.711 l 0.043,-0.51 -3.036,1.188 c -1.255,-0.978 -2.136,-1.396 -2.927,-1.396 -0.542,0 -1.028,0.21 -1.444,0.625 -2.223,2.224 -3.286,2.854 -3.296,2.861 l -0.083,0.068 c -0.354,0.413 -3.4590003,4.091 -3.4590003,5.834 0,1.106 -3.051,4.343 -5.02,6.169 -0.372,0.086 -1.729,0.464 -2.27600002,1.474 -0.301,0.555 -0.308,1.192 -0.021,1.893 1.09100002,2.662 2.63000002,3.22 3.72900002,3.22 0.977,0 1.771,-0.431 2.062,-0.612 0.966,0.168 6.8660003,1.18 8.1480003,1.18 1.149,0 2.315,-0.539 2.756,-0.766 0.657,0.484 3.325,2.664 5.084,7.263 0.171,0.447 0.346,0.917 0.528,1.405 0.429,1.149 0.916,2.453 1.451,3.735 0.087,0.207 0.175,0.415 0.265,0.623 l 1.168,2.455 1.162,1.974 c 0.068,0.103 0.137,0.203 0.206,0.302 l 0.163,0.23 c 0.071,0.099 0.144,0.196 0.217,0.293 l 0.166,0.216 c 0.076,0.096 0.152,0.189 0.23,0.283 l 0.17,0.202 c 0.081,0.093 0.163,0.183 0.277,0.307 l 0.138,0.148 c 0.088,0.091 0.177,0.178 0.269,0.267 l 0.164,0.158 c 0.1,0.092 0.202,0.179 0.352,0.307 l 0.099,0.085 c 0.125,0.101 0.252,0.196 0.409,0.311 l 0.061,0.045 c 0.163,0.114 0.328,0.222 0.498,0.321 0.878,0.518 1.817,0.813 2.796,0.882 -0.028,0.463 -0.058,0.992 -0.089,1.545 l -0.064,1.205 -0.121,2.981 c -0.002,0.15 -0.004,0.287 -0.004,0.408 0,1.681 0.789,2.468 1.113,2.721 0.08,0.569 0.34,2.96 -0.544,5.098 -0.057,0.139 -0.129,0.285 -0.209,0.438 -0.036,0.067 -0.078,0.139 -0.147,0.259 l -0.12,0.205 c -0.076,0.125 -0.159,0.254 -0.261,0.408 l -0.043,0.066 c -0.103,0.153 -0.211,0.309 -0.325,0.467 -1.777,2.474 -4.767,5.456 -4.797,5.485 l -0.548,0.546 9.041,-0.001 -0.074,-0.38 c -0.139,-0.716 -0.202,-2.009 0.22,-2.432 0.66,-0.659 1.35,-1.063 1.357,-1.066 l 0.153,-0.089 0.321,-10.042 0.121,-0.166 c 0.042,-0.06 0.09,-0.129 0.141,-0.205 l 0.122,-0.191 c 0.485,-0.771 1.063,-1.945 1.063,-3.159 0,-0.344 0.023,-0.867 0.068,-1.566 0.157,0.731 0.284,1.294 0.379,1.683 0.47,1.926 1.603,3.165 1.959,3.519 l 0,6.086 c 0,1.657 -2.991,5.976 -4.143,7.499 l -0.387,0.509 9.942,0 -0.135,-0.418 c -0.992,-3.058 -0.443,-3.982 -0.164,-4.077 l 0.352,-0.075 -0.117,-0.34 c -0.009,-0.026 -0.891,-2.623 -1.254,-5.428 l -0.077,-0.607 c -0.219,-1.779 -0.275,-2.689 -0.289,-3.025 0.272,-0.242 0.741,-0.871 0.741,-2.338 0,-0.79 -0.173,-1.853 -0.372,-3.083 -0.26,-1.604 -0.553,-3.412 -0.581,-5.237 4.06,-0.547 8.542,-0.514 13.144,0.1 2.46,0.328 4.787,0.494 6.915,0.494 6.432,0 9.49,-1.486 10.455,-2.081 0.311,0.657 1.142,2.006 3.061,3.092 -0.763,1.24 -1.089,2.121 -0.968,2.619 0.046,0.188 0.151,0.334 0.307,0.424 0.086,0.05 0.186,0.075 0.296,0.075 0.755,0 2.193,-1.343 2.874,-2.096 0.148,0.041 0.301,0.081 0.457,0.118 -0.211,0.62 -0.374,1.149 -0.485,1.578 -0.158,0.611 -0.119,1.111 0.11,1.407 0.131,0.169 0.317,0.263 0.525,0.263 0.396,0 0.797,-0.329 1.13,-0.929 0.268,-0.482 0.565,-1.152 0.886,-1.994 0.327,0.019 0.642,0.019 0.944,0.005 -0.101,3.322 -0.479,8.918 -1.852,11.665 -2.184,4.371 -6.306,9.315 -6.347,9.364 l -0.438,0.524 8.587,0 -0.094,-0.394 c -0.298,-1.249 -0.521,-3.206 -0.085,-3.642 0.653,-0.653 1.916,-0.664 1.929,-0.664 l 0.244,-10e-4 0.063,-0.235 c 0.021,-0.073 2.003,-7.394 3.101,-10.138 0.414,-1.035 1.226,-2.746 2.354,-4.969 0.363,0.677 0.714,1.389 0.974,2.115 0.03,0.084 0.058,0.17 0.085,0.254 l 0.065,0.201 c 0.025,0.084 0.049,0.17 0.084,0.298 l 0.045,0.168 c 0.021,0.087 0.041,0.175 0.061,0.265 l 0.047,0.224 c 0.017,0.084 0.031,0.17 0.047,0.257 l 0.104,0.801 0.317,-0.03 0.001,0 -0.312,0.096 0.017,0.188 c 0.009,0.12 0.015,0.246 0.021,0.371 l 0.011,0.213 c 0.007,0.202 0.012,0.411 0.012,0.628 0,0.174 -0.009,0.365 -0.024,0.589 l -0.005,0.077 c -0.015,0.198 -0.035,0.408 -0.061,0.628 l -0.016,0.121 c -0.028,0.23 -0.061,0.469 -0.104,0.751 -0.04,0.253 -0.085,0.515 -0.133,0.783 l 0.313,0.057 -0.33,0.032 c -0.05,0.273 -0.104,0.553 -0.162,0.837 l 0.313,0.063 -0.333,0.035 c -0.178,0.86 -0.395,1.813 -0.646,2.832 -0.865,3.5 -1.899,6.845 -1.91,6.878 l -0.13,0.422 7.213,-0.117 -0.084,-0.381 c -0.308,-1.411 -0.428,-3.146 -0.086,-3.488 0.64,-0.639 1.459,-1.115 1.467,-1.12 l 0.159,-0.093 0,-11.54 c 0,-1.189 0.233996,-1.954 0.460996,-2.695 0.206,-0.672 0.4,-1.307 0.4,-2.172 0,-0.12 -0.015,-0.234 -0.037,-0.346 z"
     id="path4"
     style="stroke:#ffffff;stroke-width:1.39999998;stroke-linejoin:miter;stroke-miterlimit:4;stroke-dasharray:none;stroke-opacity:1"
     inkscape:connector-curvature="0" /></svg>