<?xml version="1.0" encoding="UTF-8" standalone="no"?>
<!-- Generator: Adobe Illustrator 16.0.0, SVG Export Plug-In . SVG Version: 6.00 Build 0)  -->

<svg
   xmlns:osb="http://www.openswatchbook.org/uri/2009/osb"
   xmlns:dc="http://purl.org/dc/elements/1.1/"
   xmlns:cc="http://creativecommons.org/ns#"
   xmlns:rdf="http://www.w3.org/1999/02/22-rdf-syntax-ns#"
   xmlns:svg="http://www.w3.org/2000/svg"
   xmlns="http://www.w3.org/2000/svg"
   xmlns:xlink="http://www.w3.org/1999/xlink"
   xmlns:sodipodi="http://sodipodi.sourceforge.net/DTD/sodipodi-0.dtd"
   xmlns:inkscape="http://www.inkscape.org/namespaces/inkscape"
   version="1.1"
   id="Capa_1"
   x="0px"
   y="0px"
   width="593.77637"
   height="650.78284"
   viewBox="0 0 92.239458 101.09505"
   xml:space="preserve"
   inkscape:version="0.91 r13725"
   sodipodi:docname="elechaz.svg"><metadata
     id="metadata41"><rdf:RDF><cc:Work
         rdf:about=""><dc:format>image/svg+xml</dc:format><dc:type
           rdf:resource="http://purl.org/dc/dcmitype/StillImage" /><dc:title></dc:title></cc:Work></rdf:RDF></metadata><defs
     id="defs39"><linearGradient
       id="d80027"
       osb:paint="solid"><stop
         style="stop-color:#d50000;stop-opacity:1;"
         offset="0"
         id="stop4173" /></linearGradient><linearGradient
       inkscape:collect="always"
       xlink:href="#d80027"
       id="linearGradient4175"
       x1="-2.022104"
       y1="41.284573"
       x2="81.895119"
       y2="41.284573"
       gradientUnits="userSpaceOnUse"
       gradientTransform="matrix(1.0355102,0,0,1.1410379,4.7650619,3.4402485)" /></defs><sodipodi:namedview
     pagecolor="#ffffff"
     bordercolor="#666667"
     borderopacity="0"
     objecttolerance="10"
     gridtolerance="10"
     guidetolerance="10"
     inkscape:pageopacity="1"
     inkscape:pageshadow="2"
     inkscape:window-width="1330"
     inkscape:window-height="786"
     id="namedview37"
     showgrid="false"
     inkscape:zoom="0.4609375"
     inkscape:cx="271.9391"
     inkscape:cy="382.0134"
     inkscape:window-x="487"
     inkscape:window-y="185"
     inkscape:window-maximized="0"
     inkscape:current-layer="Capa_1"
     borderlayer="true"
     fit-margin-top="0"
     fit-margin-left="0"
     fit-margin-right="0"
     fit-margin-bottom="0" /><g
     id="g7"
     transform="translate(2.4760404,9.3239875)" /><g
     id="g9"
     transform="translate(2.4760404,9.3239875)" /><g
     id="g11"
     transform="translate(2.4760404,9.3239875)" /><g
     id="g13"
     transform="translate(2.4760404,9.3239875)" /><g
     id="g15"
     transform="translate(2.4760404,9.3239875)" /><g
     id="g17"
     transform="translate(2.4760404,9.3239875)" /><g
     id="g19"
     transform="translate(2.4760404,9.3239875)" /><g
     id="g21"
     transform="translate(2.4760404,9.3239875)" /><g
     id="g23"
     transform="translate(2.4760404,9.3239875)" /><g
     id="g25"
     transform="translate(2.4760404,9.3239875)" /><g
     id="g27"
     transform="translate(2.4760404,9.3239875)" /><g
     id="g29"
     transform="translate(2.4760404,9.3239875)" /><g
     id="g31"
     transform="translate(2.4760404,9.3239875)" /><g
     id="g33"
     transform="translate(2.4760404,9.3239875)" /><g
     id="g35"
     transform="translate(2.4760404,9.3239875)" /><rect
     style="fill:#ffffff;fill-opacity:1;stroke:url(#linearGradient4175);stroke-width:5.34229851;stroke-miterlimit:4.69999981;stroke-dasharray:none"
     id="rect4169"
     width="86.897163"
     height="95.752754"
     x="2.6711493"
     y="2.6711445" /><g
     id="g3"
     transform="translate(5.5091873,10.672054)"><path
       d="m 64.722,66.44 c 0.171,1.496 -0.891,2.863 -2.393,3.039 -1.471,0.166 -2.858,-0.88 -3.045,-2.392 l -1.444,-11.971 -9.735,-4.034 5.422,9.533 c 0.398,0.714 0.45,1.554 0.171,2.31 l -5.732,14.846 c -0.419,1.098 -1.46,1.766 -2.558,1.766 -0.326,0 -0.652,-0.057 -0.974,-0.182 -1.419,-0.533 -2.123,-2.117 -1.585,-3.526 L 47.702,63.081 40.913,54.019 27.175,42.616 17.989,44.977 c -0.259,0.082 -0.528,0.119 -0.797,0.119 -0.632,0 -1.269,-0.223 -1.771,-0.643 L 6.96,37.292 c -1.155,-0.981 -1.294,-2.711 -0.321,-3.86 0.973,-1.163 2.703,-1.3 3.852,-0.324 l 7.327,6.204 c 0,0 9.647,-1.756 13.106,-4.019 3.454,-2.266 11.49,-6.449 11.49,-6.449 0.797,-0.764 1.993,-0.966 2.993,-0.525 l 11.713,5.209 c 1.377,0.604 1.999,2.227 1.393,3.604 -0.611,1.396 -2.231,2.009 -3.609,1.406 l -10.04,-4.466 -4.433,2.175 6.592,5.349 13.748,8.477 c 1.196,0.197 2.112,1.165 2.258,2.361 L 64.722,66.44 Z M 33.104,29.557 c 0,3.381 -2.734,6.118 -6.089,6.118 -3.381,0 -6.125,-2.742 -6.125,-6.118 0,-3.374 2.75,-6.105 6.125,-6.105 3.36,0 6.089,2.731 6.089,6.105 z m 4.241,-3.309 -1.476,-14.403 6.586,5.494 0.674,-12.391 5.479,8.244 L 56.514,0 57.105,13.862 66.788,8.394 61.749,20.5 l 11.594,-3.029 -6.358,9.911 6.561,0.552 -11.061,9.253 5.013,-6.995 -3.806,-0.684 4.267,-8.138 -8.679,1.101 2.175,-8.313 -6.882,3.44 -0.435,-8.95 -5.069,7.917 -4.138,-5.458 -1.046,9.051 -6.473,-4.53 -0.067,10.62 z"
       id="path5"
       inkscape:connector-curvature="0"
       style="fill:#d80027" /></g></svg>