<?xml version="1.0" encoding="UTF-8" standalone="no"?>
<svg
   xmlns:dc="http://purl.org/dc/elements/1.1/"
   xmlns:cc="http://creativecommons.org/ns#"
   xmlns:rdf="http://www.w3.org/1999/02/22-rdf-syntax-ns#"
   xmlns:svg="http://www.w3.org/2000/svg"
   xmlns="http://www.w3.org/2000/svg"
   xmlns:sodipodi="http://sodipodi.sourceforge.net/DTD/sodipodi-0.dtd"
   xmlns:inkscape="http://www.inkscape.org/namespaces/inkscape"
   version="1.1"
   x="0px"
   y="0px"
   viewBox="0 0 103.695 73.094451"
   enable-background="new 0 0 99.997 69.373"
   xml:space="preserve"
   id="svg2"
   inkscape:version="0.91 r13725"
   sodipodi:docname="Sheep.svg"
   width="103.695"
   height="73.094452"><metadata
     id="metadata10"><rdf:RDF><cc:Work
         rdf:about=""><dc:format>image/svg+xml</dc:format><dc:type
           rdf:resource="http://purl.org/dc/dcmitype/StillImage" /><dc:title></dc:title></cc:Work></rdf:RDF></metadata><defs
     id="defs8" /><sodipodi:namedview
     pagecolor="#ffffff"
     bordercolor="#666666"
     borderopacity="1"
     objecttolerance="10"
     gridtolerance="10"
     guidetolerance="10"
     inkscape:pageopacity="0"
     inkscape:pageshadow="2"
     inkscape:window-width="1920"
     inkscape:window-height="1018"
     id="namedview6"
     showgrid="false"
     fit-margin-top="0"
     fit-margin-left="0"
     fit-margin-right="0"
     fit-margin-bottom="0"
     inkscape:zoom="2.8800864"
     inkscape:cx="51.848501"
     inkscape:cy="36.534499"
     inkscape:window-x="-8"
     inkscape:window-y="-8"
     inkscape:window-maximized="1"
     inkscape:current-layer="svg2" /><path
     d="m 83.485,2.0954509 c 0.553,-0.327 1.242,-0.219 1.85,-0.133 1.502,0.296 2.658,1.426 3.533,2.62 0.608,-0.379 1.252,-0.777 1.983,-0.842 0.595,-0.015 1.09,0.416 1.394,0.889 0.568,0.909 0.76,2.02 1.442,2.864 0.163,0.209 0.409,0.321 0.645,0.424 0.968,0.409 1.846,0.996 2.688,1.615 0.361,0.223 0.396,0.6910001 0.529,1.0560001 0.478,1.579 0.306,3.241 0.149,4.853 -0.035,0.812 -0.104,1.659 0.172,2.438 0.42,0.954 1.229,1.655 1.746,2.547 1.191,2.13 2.146,4.467 2.229,6.937 l 0,0.088 c -0.071,1.268 -0.203,2.647 -1.062,3.653 -0.707,0.846 -1.85,1.101 -2.896,1.223 -0.747,0.104 -1.508,0.127 -2.258,0.077 -1.912,-0.275 -3.812,-0.628 -5.724,-0.911 -0.34,-0.052 -0.719,-0.055 -1,0.167 -0.391,0.281 -0.494,0.786 -0.537,1.235 -0.068,1.177 0.133,2.405 -0.312,3.532 -0.227,0.604 -0.768,0.999 -1.266,1.371 -1.092,0.753 -2.313,1.291 -3.441,1.981 -0.164,0.115 -0.125,0.348 -0.125,0.521 0.075,0.916 0.332,1.821 0.253,2.747 -0.021,0.597 -0.271,1.188 -0.72,1.587 -0.768,0.709 -1.434,1.519 -2.068,2.346 -0.104,0.142 -0.222,0.283 -0.256,0.461 -0.264,1.272 -0.385,2.576 -0.74,3.83 -0.201,0.641 -0.416,1.34 -0.943,1.793 -0.633,0.492 -1.456,-0.342 -2.098,0.164 -1.191,0.882 -1.558,2.412 -2.379,3.582 -0.469,0.595 -1.104,1.039 -1.805,1.319 -0.331,4.37 -0.625,8.741 -0.896,13.115 l -5.166,0 c 0.16,-2.783 0.32,-5.567 0.486,-8.351 0.203,-1.728 -0.097,-3.444 -0.312,-5.152 -0.017,-0.364 -0.43,-0.709 -0.785,-0.543 -1.037,0.3 -2.131,0.459 -3.204,0.289 -0.87,-0.227 -1.536,-0.877 -2.11,-1.533 -1.765,1.695 -4.326,2.275 -6.712,2.025 -0.471,-0.726 -0.792,-1.629 -1.603,-2.049 -0.539,-0.324 -1.198,-0.155 -1.729,0.098 -1.214,0.558 -1.945,1.805 -3.197,2.305 -1.1,0.51 -2.359,0.188 -3.41,-0.291 -1.127,-0.54 -2.176,-1.242 -3.186,-1.975 -0.52,0.236 -0.837,0.728 -1.123,1.195 -0.968,0.117 -1.964,0.449 -2.923,0.103 -1.548,-0.399 -2.625,-1.652 -3.94,-2.472 -0.886,0.66 -1.608,1.58 -2.68,1.957 -0.698,0.24 -1.468,0.399 -2.196,0.207 -0.825,-0.181 -1.609,-0.5 -2.425,-0.705 -0.27,-0.078 -0.558,-0.037 -0.807,0.082 -1.433,0.646 -2.197,2.23 -3.688,2.779 -0.307,0.148 -0.632,0.043 -0.936,-0.047 -0.346,3.812 -0.79,7.618 -1.159,11.43 -1.811,0.006 -3.623,-0.002 -5.434,0.004 -0.078,-0.656 -0.297,-1.312 -0.188,-1.978 0.27,-2.282 0.637,-4.551 0.9,-6.833 0.181,-1.895 -0.835,-3.648 -2.096,-4.977 0.154,-0.737 -0.056,-1.502 -0.528,-2.078 -1.24,-1.65 -3.362,-2.342 -4.546,-4.043 -0.357,-0.53 -0.698,-1.256 -0.328,-1.864 0.285,-0.724 0.94,-1.381 0.769,-2.21 -0.04,-0.262 -0.165,-0.502 -0.347,-0.691 -1.07,-1.188 -1.971,-2.514 -2.849,-3.844 -0.403,-0.59 -0.372,-1.338 -0.438,-2.02 -0.141,-1.194 0.732,-2.201 0.798,-3.364 -0.196,-0.665 -0.84,-1.073 -1.192,-1.654 -0.8,-1.386 -1.361,-2.94 -1.438,-4.551 l 0,-0.446 c 0.086,-0.751 0.078,-1.537 0.396,-2.239 0.522,-1.006 1.566,-1.623 2.075,-2.636 -0.222,-0.968 -0.747,-1.833 -0.966,-2.799 -0.097,-1.466 0.425,-2.955 1.404,-4.049 0.664,-0.035 1.319,-0.157 1.968,-0.296 0.633,-0.125 1.1,-0.631 1.448,-1.145 0.703,-1.045 0.832,-2.351 1.479,-3.422 0.255,-0.444 0.607,-0.855 1.08,-1.074 0.692,-0.327 1.395,-0.631 2.119,-0.88 0.38,-0.117 0.779,-0.237 1.18,-0.167 0.894,0.134 1.771,0.361 2.665,0.5 0.624,0.088 1.321,-0.085 1.74,-0.58 0.379,-0.424 0.483,-1.003 0.574,-1.5440001 0.926,-0.306 1.929,-0.646 2.907,-0.389 1.367,0.311 2.72,0.672 4.091,0.9600001 0.748,-0.3670001 1.104,-1.2080001 1.849,-1.5820001 0.884,-0.481 1.947,-0.333 2.873,-0.064 1.13,0.322 1.991,1.168 3.041,1.6550001 0.735,-0.4380001 1.304,-1.3160001 2.246,-1.2750001 1.698,0.444 3.091,1.8030001 4.899,1.8680001 1.229,0.001 1.779,-1.3540001 2.912,-1.5940001 0.744,-0.228 1.496,0.125 2.104,0.54 0.745,0.5170001 1.432,1.1100001 2.132,1.6840001 1.052,-0.622 2.251,-1.085 3.492,-1.026 1.448,0.261 2.847,0.754 4.294,1.011 0.615,-0.026 0.967,-0.649 1.489,-0.902 1.062,-0.497 2.237,-0.7550001 3.409,-0.7560001 1.316,0.1690001 2.543,0.7120001 3.82,1.0420001 0.623,-0.171 1.135,-0.659 1.803,-0.686 1.026,-0.025 2.055,-0.006 3.08,-0.008 0.401,-0.3210001 0.769,-0.7090001 1.26,-0.9000001 0.869,-0.37 1.744,-0.836 2.703,-0.898 0.994,0.08 1.975,0.287 2.964,0.402 0.235,-1.401 0.842,-2.703 1.481,-3.958 1.241,-0.227 2.463,-0.58 3.66,-0.973 0.738,-0.484 1.285,-1.21 1.964,-1.772 z"
     id="path4"
     style="fill:#ffffff;fill-opacity:1;stroke:#000000;stroke-width:3.7;stroke-miterlimit:4;stroke-dasharray:none;stroke-opacity:1"
     inkscape:connector-curvature="0" /></svg>