<?xml version="1.0" encoding="UTF-8" standalone="no"?>
<!-- Generator: Adobe Illustrator 16.0.0, SVG Export Plug-In . SVG Version: 6.00 Build 0)  -->

<svg
   xmlns:dc="http://purl.org/dc/elements/1.1/"
   xmlns:cc="http://creativecommons.org/ns#"
   xmlns:rdf="http://www.w3.org/1999/02/22-rdf-syntax-ns#"
   xmlns:svg="http://www.w3.org/2000/svg"
   xmlns="http://www.w3.org/2000/svg"
   xmlns:sodipodi="http://sodipodi.sourceforge.net/DTD/sodipodi-0.dtd"
   xmlns:inkscape="http://www.inkscape.org/namespaces/inkscape"
   version="1.1"
   id="Capa_1"
   x="0px"
   y="0px"
   width="738.53217"
   height="736.36267"
   viewBox="0 0 797.59022 795.24724"
   xml:space="preserve"
   inkscape:version="0.91 r13725"
   sodipodi:docname="firehose.svg"><metadata
     id="metadata41"><rdf:RDF><cc:Work
         rdf:about=""><dc:format>image/svg+xml</dc:format><dc:type
           rdf:resource="http://purl.org/dc/dcmitype/StillImage" /><dc:title></dc:title></cc:Work></rdf:RDF></metadata><defs
     id="defs39" /><sodipodi:namedview
     pagecolor="#ffffff"
     bordercolor="#666666"
     borderopacity="1"
     objecttolerance="10"
     gridtolerance="10"
     guidetolerance="10"
     inkscape:pageopacity="0"
     inkscape:pageshadow="2"
     inkscape:window-width="1920"
     inkscape:window-height="1018"
     id="namedview37"
     showgrid="false"
     inkscape:zoom="0.4609375"
     inkscape:cx="367.0966"
     inkscape:cy="367.0966"
     inkscape:window-x="-8"
     inkscape:window-y="-8"
     inkscape:window-maximized="1"
     inkscape:current-layer="Capa_1"
     fit-margin-top="0"
     fit-margin-left="0"
     fit-margin-right="0"
     fit-margin-bottom="0" /><rect
     style="fill:#ffffff;fill-opacity:1;stroke:#d80027;stroke-width:39.26464462;stroke-miterlimit:4;stroke-dasharray:none;stroke-opacity:1"
     id="rect4169"
     width="758.32556"
     height="755.9826"
     x="19.632322"
     y="19.632322" /><g
     id="g3"
     transform="translate(119.98064,122.32361)"><path
       d="m 168.947,384.543 -6.1,0 0,-346.399 c 0,-19.6 -15.9,-36.1 -35.5,-36.1 l -1.2,0 0,0 c -1.2,0 -2.4,0 -3.7,0.6 l 0,0 c -18.4,1.8 -31.8,17.1 -31.8,35.5 l 0,346.399 -6.1,0 c -8,0 -14.1,6.101 -14.1,14.101 0,8 6.7,14.1 14.1,14.1 l 11.6,0 8,126.101 c 0.6,8 7.3,14.1 15.3,14.1 l 6.7,0 1.8,0 6.7,0 c 8,0 14.7,-6.1 15.3,-14.1 l 7.3,-125.5 11.6,0 c 8,0 14.1,-6.7 14.1,-14.101 0.7,-8.6 -6,-14.701 -14,-14.701 z m -19,46.5 -46.5,0 -0.6,-11.6 0,0 47.7,0 -0.6,11.6 z m 132.2,-116.3 c 1.8,20.2 -12.9,37.9 -33.7,39.8 -20.2,1.801 -37.9,-12.899 -39.8,-33.699 l -24.5,-280.3 c -1.8,-20.2 12.9,-37.9 33.7,-39.8 20.2,-1.8 37.9,12.9 39.8,33.7 l 24.5,280.299 z m 166.5,39.2 c -20.2,1.8 -37.9,-12.9 -39.8,-33.7 l -24.5,-280.299 c -1.801,-20.2 13.5,-37.9 33.699,-39.8 l 0,0 c 20.2,-1.8 37.9,13.5 39.801,33.7 l 24.5,280.3 c 1.8,20.799 -12.9,38 -33.7,39.799 z m -66.7,-39.2 c 1.8,20.2 -12.9,37.9 -33.7,39.8 -20.2,1.801 -37.899,-12.899 -39.8,-33.699 l -24.5,-280.3 c -1.8,-20.2 12.9,-37.9 33.7,-39.8 20.2,-1.8 37.899,12.9 39.8,33.7 l 24.5,280.299 z"
       id="path5"
       inkscape:connector-curvature="0"
       style="fill:#d80027" /></g><g
     id="g7"
     transform="translate(119.98064,122.32361)" /><g
     id="g9"
     transform="translate(119.98064,122.32361)" /><g
     id="g11"
     transform="translate(119.98064,122.32361)" /><g
     id="g13"
     transform="translate(119.98064,122.32361)" /><g
     id="g15"
     transform="translate(119.98064,122.32361)" /><g
     id="g17"
     transform="translate(119.98064,122.32361)" /><g
     id="g19"
     transform="translate(119.98064,122.32361)" /><g
     id="g21"
     transform="translate(119.98064,122.32361)" /><g
     id="g23"
     transform="translate(119.98064,122.32361)" /><g
     id="g25"
     transform="translate(119.98064,122.32361)" /><g
     id="g27"
     transform="translate(119.98064,122.32361)" /><g
     id="g29"
     transform="translate(119.98064,122.32361)" /><g
     id="g31"
     transform="translate(119.98064,122.32361)" /><g
     id="g33"
     transform="translate(119.98064,122.32361)" /><g
     id="g35"
     transform="translate(119.98064,122.32361)" /></svg>