<?xml version="1.0" encoding="UTF-8" standalone="no"?>
<!-- Generator: Adobe Illustrator 16.0.0, SVG Export Plug-In . SVG Version: 6.00 Build 0)  -->

<svg
   xmlns:dc="http://purl.org/dc/elements/1.1/"
   xmlns:cc="http://creativecommons.org/ns#"
   xmlns:rdf="http://www.w3.org/1999/02/22-rdf-syntax-ns#"
   xmlns:svg="http://www.w3.org/2000/svg"
   xmlns="http://www.w3.org/2000/svg"
   xmlns:sodipodi="http://sodipodi.sourceforge.net/DTD/sodipodi-0.dtd"
   xmlns:inkscape="http://www.inkscape.org/namespaces/inkscape"
   version="1.1"
   id="svg2"
   sodipodi:version="0.32"
   sodipodi:docname="Flushing Point.svg"
   inkscape:output_extension="org.inkscape.output.svg.inkscape"
   inkscape:version="0.91 r13725"
   x="0px"
   y="0px"
   width="675.08716"
   height="607.81848"
   viewBox="0 0 675.08716 607.81848"
   enable-background="new 0 0 580 580"
   xml:space="preserve"><metadata
     id="metadata19"><rdf:RDF><cc:Work
         rdf:about=""><dc:format>image/svg+xml</dc:format><dc:type
           rdf:resource="http://purl.org/dc/dcmitype/StillImage" /><dc:title></dc:title></cc:Work></rdf:RDF></metadata><sodipodi:namedview
     showgrid="false"
     inkscape:cy="443.7098"
     inkscape:cx="65.549658"
     inkscape:zoom="0.46083856"
     pagecolor="#ffffff"
     bordercolor="#666666"
     guidetolerance="10.0"
     objecttolerance="10.0"
     gridtolerance="10.0"
     borderopacity="1.0"
     id="base"
     inkscape:current-layer="svg2"
     inkscape:window-y="25"
     inkscape:window-x="91"
     inkscape:pageopacity="0.0"
     inkscape:pageshadow="2"
     inkscape:window-height="947"
     inkscape:window-width="1048"
     inkscape:object-nodes="true"
     inkscape:snap-smooth-nodes="true"
     fit-margin-top="0"
     fit-margin-left="0"
     fit-margin-right="0"
     fit-margin-bottom="0"
     inkscape:window-maximized="0" /><defs
     id="defs5"><inkscape:perspective
       inkscape:vp_z="580 : 290 : 1"
       inkscape:vp_y="0 : 1000 : 0"
       inkscape:vp_x="0 : 290 : 1"
       sodipodi:type="inkscape:persp3d"
       id="perspective2441"
       inkscape:persp3d-origin="290 : 193.33333 : 1" /><inkscape:perspective
       inkscape:vp_z="60 : 30 : 1"
       inkscape:vp_y="0 : 1000 : 0"
       inkscape:vp_x="0 : 30 : 1"
       sodipodi:type="inkscape:persp3d"
       id="perspective3452"
       inkscape:persp3d-origin="30 : 20 : 1" /><inkscape:perspective
       inkscape:vp_z="744.09448 : 526.18109 : 1"
       inkscape:vp_y="0 : 1000 : 0"
       inkscape:vp_x="0 : 526.18109 : 1"
       sodipodi:type="inkscape:persp3d"
       id="perspective4471"
       inkscape:persp3d-origin="372.04724 : 350.78739 : 1" /><inkscape:perspective
       inkscape:vp_z="12 : 6 : 1"
       inkscape:vp_y="0 : 1000 : 0"
       inkscape:vp_x="0 : 6 : 1"
       sodipodi:type="inkscape:persp3d"
       id="perspective4668"
       inkscape:persp3d-origin="6 : 4 : 1" /><inkscape:perspective
       inkscape:vp_z="744.09448 : 526.18109 : 1"
       inkscape:vp_y="0 : 1000 : 0"
       inkscape:vp_x="0 : 526.18109 : 1"
       sodipodi:type="inkscape:persp3d"
       id="perspective2562"
       inkscape:persp3d-origin="372.04724 : 350.78739 : 1" /><inkscape:perspective
       inkscape:vp_z="580 : 290 : 1"
       inkscape:vp_y="0 : 1000 : 0"
       inkscape:vp_x="0 : 290 : 1"
       sodipodi:type="inkscape:persp3d"
       id="perspective12"
       inkscape:persp3d-origin="290 : 193.33333 : 1" /></defs><rect
     style="fill:#ffffff;fill-opacity:1;stroke:#000000;stroke-width:24.10000038;stroke-miterlimit:4;stroke-dasharray:none;stroke-opacity:1"
     id="rect4147"
     width="650.98718"
     height="583.71851"
     x="12.05"
     y="12.05" /><g
     id="layer3"
     transform="matrix(48.14969,0,0,48.14969,-487.334,-106.50648)"
     inkscape:label="Layout"
     display="none"
     style="display:none"><rect
       id="rect4134"
       x="1"
       y="1"
       display="inline"
       width="10"
       height="10"
       style="display:inline;fill:none;stroke:#757575;stroke-width:0.1" /><rect
       id="rect4136"
       x="2"
       y="2"
       display="inline"
       width="8"
       height="8"
       style="display:inline;fill:none;stroke:#757575;stroke-width:0.1" /></g><path
     fill="param(fill)"
     fill-opacity="param(fill-opacity)"
     stroke="param(outline)"
     stroke-opacity="param(outline-opacity)"
     stroke-width="param(outline-width)"
     d="m 542.13225,209.03439 -117.40557,-0.66255 c -4.5434,-22.96613 -14.81567,-40.63734 -28.60192,-49.3997 l 0,-19.459 c 7.92871,2.60092 14.09015,4.10261 18.5829,4.10261 13.85059,0 25.11942,-11.26746 25.11942,-25.11942 0,-13.85196 -11.26746,-25.119423 -25.11942,-25.119423 -0.13142,0 -0.26146,0.003 -0.39288,0.007 -5.65631,0.21628 -14.28179,2.93767 -27.03178,7.500233 -3.31959,-2.305243 -7.34418,-3.664563 -11.69182,-3.664563 -4.27509,0 -8.24218,1.30867 -11.53029,3.544103 -12.56793,-4.491383 -21.08663,-7.164863 -26.69367,-7.379773 -0.13141,-0.004 -0.26146,-0.007 -0.39287,-0.007 -13.85059,0 -25.11942,11.267463 -25.11942,25.119423 0,13.85196 11.26746,25.11942 25.11942,25.11942 4.39692,0 10.39821,-1.44146 18.08324,-3.94108 l 0,19.28651 c -13.66305,8.68571 -23.88193,26.13926 -28.48693,48.85625 l -47.16427,-0.26694 c -0.88295,-0.0123 -1.75768,-0.0192 -2.6283,-0.0192 -46.88776,0 -74.51775,18.59932 -89.51275,34.38007 -34.02278,35.80099 -31.83664,84.34786 -31.47662,89.76599 l 68.29471,-4.55298 c -0.0164,-0.22998 -0.6913,-23.87098 12.7979,-38.06379 8.52554,-8.97181 22.5582,-13.36052 41.63527,-13.07032 l 51.27921,0.29021 c 8.42698,25.97636 25.16596,42.50863 45.79537,42.50863 0.01,0 0.0424,0 0.0534,0 20.4624,-0.0301 37.08365,-16.32967 45.55855,-41.99255 l 120.54036,0.68172 0.38877,-68.44392 z"
     id="path16"
     inkscape:connector-curvature="0" /><path
     style="fill:none;fill-rule:evenodd;stroke:#000000;stroke-width:15.70000076;stroke-linecap:butt;stroke-linejoin:miter;stroke-miterlimit:4;stroke-dasharray:none;stroke-opacity:1"
     d="m 216.02599,357.07322 c 0,0 34.71931,36.88927 4.33991,78.11846 -30.3794,41.22919 6.50987,73.77855 6.50987,73.77855"
     id="path4151"
     inkscape:connector-curvature="0" /><path
     inkscape:connector-curvature="0"
     id="path4153"
     d="m 159.6071,361.41313 c 0,0 34.71931,36.88927 4.33991,78.11846 -30.37939,41.22919 6.50987,73.77855 6.50987,73.77855"
     style="fill:none;fill-rule:evenodd;stroke:#000000;stroke-width:15.70000076;stroke-linecap:butt;stroke-linejoin:miter;stroke-miterlimit:4;stroke-dasharray:none;stroke-opacity:1" /></svg>