<?xml version="1.0" encoding="UTF-8" standalone="no"?>
<svg
   xmlns:dc="http://purl.org/dc/elements/1.1/"
   xmlns:cc="http://creativecommons.org/ns#"
   xmlns:rdf="http://www.w3.org/1999/02/22-rdf-syntax-ns#"
   xmlns:svg="http://www.w3.org/2000/svg"
   xmlns="http://www.w3.org/2000/svg"
   xmlns:sodipodi="http://sodipodi.sourceforge.net/DTD/sodipodi-0.dtd"
   xmlns:inkscape="http://www.inkscape.org/namespaces/inkscape"
   version="1.1"
   x="0px"
   y="0px"
   viewBox="0 0 138.4184 107.48618"
   enable-background="new 0 0 100 100"
   xml:space="preserve"
   id="svg2"
   inkscape:version="0.91 r13725"
   sodipodi:docname="Hi_wind_area.svg"
   width="138.4184"
   height="107.48618"><metadata
     id="metadata34"><rdf:RDF><cc:Work
         rdf:about=""><dc:format>image/svg+xml</dc:format><dc:type
           rdf:resource="http://purl.org/dc/dcmitype/StillImage" /><dc:title></dc:title></cc:Work></rdf:RDF></metadata><defs
     id="defs32" /><sodipodi:namedview
     pagecolor="#ffffff"
     bordercolor="#666666"
     borderopacity="1"
     objecttolerance="10"
     gridtolerance="10"
     guidetolerance="10"
     inkscape:pageopacity="0"
     inkscape:pageshadow="2"
     inkscape:window-width="1920"
     inkscape:window-height="1018"
     id="namedview30"
     showgrid="false"
     inkscape:zoom="2.36"
     inkscape:cx="67.090552"
     inkscape:cy="52.260042"
     inkscape:window-x="-8"
     inkscape:window-y="-8"
     inkscape:window-maximized="1"
     inkscape:current-layer="svg2"
     fit-margin-top="0"
     fit-margin-left="0"
     fit-margin-right="0"
     fit-margin-bottom="0" /><rect
     style="fill:#ffffff;fill-opacity:1;stroke:#000000;stroke-width:5.26004314;stroke-linecap:butt;stroke-linejoin:round;stroke-miterlimit:4;stroke-dasharray:none;stroke-opacity:1"
     id="rect4162"
     width="133.15836"
     height="102.22614"
     x="2.6300216"
     y="2.6300216" /><g
     id="g4"
     transform="translate(17.090552,5.2261441)"><g
       id="g6"><path
         d="m 22,56 c -1.104,0 -2,0.896 -2,2 0,1.104 0.896,2 2,2 l 40,0 0,-4 -40,0 z"
         id="path8"
         inkscape:connector-curvature="0"
         style="clip-rule:evenodd;fill-rule:evenodd" /></g></g><g
     id="g10"
     transform="translate(17.090552,5.2261441)"><g
       id="g12"><path
         d="m 7,48 c -1.104,0 -2,0.896 -2,2 0,1.104 0.896,2 2,2 l 72,0 0,-4 -72,0 z"
         id="path14"
         inkscape:connector-curvature="0"
         style="clip-rule:evenodd;fill-rule:evenodd" /></g></g><g
     id="g16"
     transform="translate(17.090552,5.2261441)"><g
       id="g18"><path
         d="m 14,41 c -1.104,0 -2,0.896 -2,2 0,1.104 0.896,2 2,2 l 32,0 0,-4 -32,0 z"
         id="path20"
         inkscape:connector-curvature="0"
         style="clip-rule:evenodd;fill-rule:evenodd" /></g></g><path
     stroke-miterlimit="10"
     d="m 53.489552,38.626144 c 0,-5.302 4.298,-9.6 9.6,-9.6 5.302,0 9.601,4.298 9.601,9.6 0,5.302 -4.299,9.6 -9.601,9.6"
     id="path22"
     inkscape:connector-curvature="0"
     style="fill:none;stroke:#000000;stroke-width:4;stroke-linecap:round;stroke-miterlimit:10" /><path
     stroke-miterlimit="10"
     d="m 82.037552,41.175144 c 0,-7.76 6.291,-14.051 14.052,-14.051 7.760998,0 14.052998,6.291 14.052998,14.051 0,7.76 -6.292,14.051 -14.052998,14.051"
     id="path24"
     inkscape:connector-curvature="0"
     style="fill:none;stroke:#000000;stroke-width:4;stroke-linecap:round;stroke-miterlimit:10" /><path
     stroke-miterlimit="10"
     d="M 78.089552,64.226144"
     id="path26"
     inkscape:connector-curvature="0"
     style="fill:none;stroke:#000000;stroke-width:4;stroke-linecap:round;stroke-miterlimit:10" /><path
     stroke-miterlimit="10"
     d="m 69.469552,72.847144 c 0,5.313 4.308,9.621 9.621,9.621 5.313,0 9.621,-4.308 9.621,-9.621 0,-5.313 -4.308,-9.621 -9.621,-9.621"
     id="path28"
     inkscape:connector-curvature="0"
     style="fill:none;stroke:#000000;stroke-width:4;stroke-linecap:round;stroke-miterlimit:10" /></svg>