<?xml version="1.0" encoding="UTF-8" standalone="no"?>
<svg
   xmlns:dc="http://purl.org/dc/elements/1.1/"
   xmlns:cc="http://creativecommons.org/ns#"
   xmlns:rdf="http://www.w3.org/1999/02/22-rdf-syntax-ns#"
   xmlns:svg="http://www.w3.org/2000/svg"
   xmlns="http://www.w3.org/2000/svg"
   xmlns:sodipodi="http://sodipodi.sourceforge.net/DTD/sodipodi-0.dtd"
   xmlns:inkscape="http://www.inkscape.org/namespaces/inkscape"
   viewBox="0 0 49.723312 37.519922"
   version="1.1"
   x="0px"
   y="0px"
   id="svg2"
   inkscape:version="0.91 r13725"
   sodipodi:docname="loading bay.svg"
   width="49.723312"
   height="37.51992">
  <metadata
     id="metadata22">
    <rdf:RDF>
      <cc:Work
         rdf:about="">
        <dc:format>image/svg+xml</dc:format>
        <dc:type
           rdf:resource="http://purl.org/dc/dcmitype/StillImage" />
        <dc:title></dc:title>
      </cc:Work>
    </rdf:RDF>
  </metadata>
  <defs
     id="defs20" />
  <sodipodi:namedview
     pagecolor="#ffffff"
     bordercolor="#666666"
     borderopacity="1"
     objecttolerance="10"
     gridtolerance="10"
     guidetolerance="10"
     inkscape:pageopacity="0"
     inkscape:pageshadow="2"
     inkscape:window-width="1574"
     inkscape:window-height="798"
     id="namedview18"
     showgrid="false"
     fit-margin-top="0"
     fit-margin-left="0"
     fit-margin-right="0"
     fit-margin-bottom="0"
     inkscape:zoom="7.375"
     inkscape:cx="25.539623"
     inkscape:cy="19.166739"
     inkscape:window-x="0"
     inkscape:window-y="0"
     inkscape:window-maximized="0"
     inkscape:current-layer="svg2" />
  <rect
     style="opacity:1;fill:#ffffff;fill-opacity:1;stroke:#000000;stroke-width:2.364;stroke-linecap:butt;stroke-linejoin:round;stroke-miterlimit:4;stroke-dasharray:none;stroke-opacity:1"
     id="rect4150"
     width="47.359314"
     height="35.155922"
     x="1.182"
     y="1.182" />
  <g
     transform="matrix(-1,0,0,1,41.558158,-1018.009)"
     id="g4">
    <g
       transform="translate(-2.7640848e-5,-3.9608678)"
       id="g6">
      <g
         transform="translate(-193.99997,107.96089)"
         id="g8">
        <g
           transform="translate(244.50034,-99.51437)"
           id="g10">
          <g
             transform="matrix(0.91141401,0,0,0.91115977,-166.65538,-67.310652)"
             id="g12">
            <g
               transform="translate(130,170)"
               id="g14">
              <path
                 style="color:#000000;font-style:normal;font-variant:normal;font-weight:normal;font-stretch:normal;font-size:medium;line-height:normal;font-family:sans-serif;text-indent:0;text-align:start;text-decoration:none;text-decoration-line:none;text-decoration-style:solid;text-decoration-color:#000000;letter-spacing:normal;word-spacing:normal;text-transform:none;direction:ltr;block-progression:tb;writing-mode:lr-tb;baseline-shift:baseline;text-anchor:start;white-space:normal;clip-rule:nonzero;display:inline;overflow:visible;visibility:visible;opacity:1;isolation:auto;mix-blend-mode:normal;color-interpolation:sRGB;color-interpolation-filters:linearRGB;solid-color:#000000;solid-opacity:1;fill:#000000;fill-opacity:1;fill-rule:evenodd;stroke:none;stroke-width:1.09734929px;stroke-linecap:round;stroke-linejoin:round;stroke-miterlimit:4;stroke-dasharray:none;stroke-dashoffset:0;stroke-opacity:1;color-rendering:auto;image-rendering:auto;shape-rendering:auto;text-rendering:auto;enable-background:accumulate"
                 d="m 28.011719,4.9902344 a 0.50011976,0.49998025 0 0 0 -0.09961,0.011719 l -12.240234,0 a 0.50011976,0.49998025 0 0 0 -0.486328,0.378906 L 12.019531,18.375 l 0,-12.875 A 0.50011971,0.4999802 0 0 0 11.511719,4.9941406 0.50011971,0.4999802 0 0 0 11.019531,5.5 l 0,14.550781 c -0.353417,0.05148 -0.688639,0.151325 -1,0.300781 l 0,-5.851562 A 0.50011976,0.49998025 0 0 0 9.5195312,14 l -7,0 a 0.50011976,0.49998025 0 0 0 -0.5,0.5 l 0,7 a 0.50011976,0.49998025 0 0 0 0.5,0.5 l 5.8515626,0 c -0.1493974,0.311458 -0.249338,0.646541 -0.3007813,1 l -6.5644531,0 a 0.50018401,0.50004448 0 1 0 0,1 l 6.5644531,0 c 0.2459159,1.689651 1.6933188,3 3.4492185,3 1.755901,0 3.203303,-1.310349 3.449219,-3 l 9.101562,0 c 0.245976,1.689584 1.693366,3 3.449219,3 1.927184,0 3.499996,-1.573079 3.5,-3.5 -3e-6,-1.576991 -1.06109,-2.901137 -2.5,-3.335938 l 0,-14.4999995 a 0.50011976,0.49998025 0 0 0 -0.314453,-0.6386719 0.50011976,0.49998025 0 0 0 -0.0098,-0.00391 0.50011976,0.49998025 0 0 0 -0.0078,-0.00195 0.50011976,0.49998025 0 0 0 -0.175781,-0.029297 z M 16.066406,6 l 8.953125,0 0,11.816406 -1,1.166016 0,-4.482422 -1,0 0,4.5 -4.5,0 0,1 4.626953,0 -0.857422,1 -8.330078,0 C 13.748257,20.794263 13.506767,20.624422 13.25,20.476562 l 4.224609,-4.21289 0.384766,0.384766 a 0.50070739,0.50056772 0 1 0 0.708984,-0.707032 l -1.49414,-1.49414 a 0.50011976,0.49998025 0 0 0 -0.361328,-0.152344 0.50011976,0.49998025 0 0 0 -0.347657,0.859375 l 0.402344,0.402344 -4.007812,3.996093 L 16.066406,6 Z m 9.953125,0 1.5,0 0,14 c -1.755853,0 -3.203243,1.310416 -3.449219,3 L 14.96875,23 C 14.91731,22.646541 14.817366,22.311458 14.667969,22 L 22.75,22 26.019531,18.183594 26.019531,6 Z m -22.9999998,9 1,0 0,2.492188 a 0.50011976,0.49998025 0 0 0 0.71875,0.449218 l 0.5,-0.24414 a 0.50011976,0.49998025 0 0 0 0.00391,0 l 0.7773437,-0.388672 0.7753907,0.388672 a 0.50011976,0.49998025 0 0 0 0.00586,0 l 0.4980469,0.24414 a 0.50011976,0.49998025 0 0 0 0.7207031,-0.449218 l 0,-2.492188 0.9980469,0 0,6.007812 A 0.50011976,0.49998025 0 0 0 8.9238281,21 l -5.9042969,0 0,-6 z m 1.9980469,0 2.0019531,0 0,1.689453 -0.7753906,-0.388672 a 0.50011976,0.49998025 0 0 0 -0.4472656,0 l -0.7792969,0.388672 0,-1.689453 z m 6.5019529,6 c 1.38652,0 2.499998,1.113215 2.5,2.5 -2e-6,1.386785 -1.11348,2.5 -2.5,2.5 -1.386518,0 -2.4999967,-1.113215 -2.4999998,-2.5 3.1e-6,-1.386785 1.1134818,-2.5 2.4999998,-2.5 z m 16,0 c 1.386519,0 2.499998,1.113215 2.5,2.5 -2e-6,1.386785 -1.113481,2.5 -2.5,2.5 -1.36174,0 -2.453386,-1.075588 -2.492187,-2.427734 a 0.50018401,0.50004448 0 0 0 0,-0.142578 C 25.065133,22.076613 26.157128,21 27.519531,21 Z m -16,1 c -0.822616,0 -1.499998,0.677587 -1.5,1.5 2e-6,0.822413 0.677384,1.5 1.5,1.5 0.822617,0 1.499998,-0.677587 1.5,-1.5 -2e-6,-0.822413 -0.677383,-1.5 -1.5,-1.5 z m 16,0 c -0.822617,0 -1.501952,0.677587 -1.501953,1.5 1e-6,0.822413 0.679336,1.5 1.501953,1.5 0.822617,0 1.499998,-0.677587 1.5,-1.5 -2e-6,-0.822413 -0.677383,-1.5 -1.5,-1.5 z m -16,1 c 0.281952,0 0.5,0.217814 0.5,0.5 0,0.282186 -0.218048,0.5 -0.5,0.5 -0.281951,0 -0.499999,-0.217814 -0.5,-0.5 10e-7,-0.282186 0.218049,-0.5 0.5,-0.5 z m 16,0 c 0.281952,0 0.499999,0.217814 0.5,0.5 -1e-6,0.282186 -0.218048,0.5 -0.5,0.5 -0.281951,0 -0.5,-0.217814 -0.5,-0.5 0,-0.282186 0.218049,-0.5 0.5,-0.5 z"
                 transform="matrix(1.0971962,0,0,1.0975024,-2.5551326,1018.8005)"
                 id="path16"
                 inkscape:connector-curvature="0" />
            </g>
          </g>
        </g>
      </g>
    </g>
  </g>
</svg>
