<svg height='100px' width='100px'  fill="#000000" xmlns="http://www.w3.org/2000/svg" xmlns:xlink="http://www.w3.org/1999/xlink" xmlns:serif="http://www.serif.com/" viewBox="0 0 100 101" version="1.1" xml:space="preserve" style="" x="0px" y="0px" fill-rule="evenodd" clip-rule="evenodd" stroke-linejoin="round" stroke-miterlimit="1.41421"><rect serif:id="Page 48" x="0" y="0.5" width="100" height="100" style="" fill="none"></rect><path d="M61.226,31.098c4.765,0.09 9.037,4.152 9.131,9.131c0.056,8.727 0.056,17.454 0,26.18c-0.09,4.786 -4.218,9.038 -9.131,9.131c-7.484,0.048 -14.968,0.048 -22.452,0c-4.782,-0.09 -9.039,-4.214 -9.131,-9.131c-0.056,-8.726 -0.056,-17.453 0,-26.18c0.09,-4.769 4.15,-9.037 9.131,-9.131c7.484,-0.048 14.968,-0.048 22.452,0Zm-22.328,3c-3.255,0.021 -6.193,2.871 -6.255,6.169c-0.057,8.728 -0.163,17.458 0.001,26.185c0.102,3.177 2.886,5.984 6.087,6.086c7.511,0.142 15.027,0.142 22.538,0c3.177,-0.101 5.985,-2.885 6.087,-6.086c0.164,-8.754 0.164,-17.512 0,-26.266c-0.102,-3.177 -2.886,-5.984 -6.087,-6.086c-7.456,-0.14 -14.914,-0.002 -22.371,-0.002Z" style="" fill-rule="nonzero"></path><path d="M69.005,51.826c0.957,0.142 1.088,0.556 1.239,0.919c0.371,0.896 -0.343,2.023 -1.386,2.074l-37.716,0c-1.548,-0.076 -2.211,-2.891 0,-3l37.716,0c0.049,0.002 0.098,0.005 0.147,0.007Z" style="" fill-rule="nonzero"></path><path d="M61.268,72.545c0.785,0.088 1.353,0.565 1.388,1.496l0,4.88c-0.013,0.344 -0.046,0.401 -0.104,0.548c-0.217,0.554 -0.766,0.928 -1.396,0.952l-22.312,0c-0.345,-0.013 -0.401,-0.046 -0.548,-0.104c-0.555,-0.218 -0.929,-0.766 -0.952,-1.396l0,-4.88c0.013,-0.345 0.046,-0.402 0.104,-0.548c0.217,-0.555 0.766,-0.929 1.396,-0.952c7.475,0 14.955,-0.276 22.424,0.004Zm-20.924,2.996l0,1.88l19.312,0l0,-1.88c-6.437,0 -12.875,0 -19.312,0Z" style="" fill-rule="nonzero"></path><path d="M61.268,20.705c0.343,0.038 0.397,0.075 0.539,0.144c0.502,0.242 0.827,0.763 0.849,1.351l0,10.398c-0.013,0.344 -0.046,0.401 -0.104,0.548c-0.217,0.554 -0.766,0.928 -1.396,0.952l-22.312,0c-0.345,-0.013 -0.401,-0.046 -0.548,-0.104c-0.555,-0.218 -0.929,-0.766 -0.952,-1.396l0,-10.398c0.031,-0.831 0.524,-1.463 1.5,-1.5c7.475,0 14.955,-0.275 22.424,0.005Zm-20.924,2.995l0,7.398l19.312,0l0,-7.398c-6.437,0 -12.875,0 -19.312,0Z" style="" fill-rule="nonzero"></path><path d="M55.414,25.23c1.997,0.157 2.12,4.171 0,4.338c-3.582,0.094 -7.166,0.002 -10.749,0.002c-2.015,-0.053 -2.249,-4.169 -0.079,-4.34c3.608,-0.094 7.22,-0.094 10.828,0Z" style="" fill-rule="nonzero"></path></svg>
