<svg height='100px' width='100px'  fill="#1A1A1A" xmlns="http://www.w3.org/2000/svg" xmlns:xlink="http://www.w3.org/1999/xlink" xml:space="preserve" style="shape-rendering:geometricPrecision;text-rendering:geometricPrecision;image-rendering:optimizeQuality;" viewBox="0 0 66.6667 66.6667" x="0px" y="0px" fill-rule="evenodd" clip-rule="evenodd"><defs><style type="text/css">
   
    .fil1 {fill:none}
    .fil0 {fill:#1A1A1A;fill-rule:nonzero}
   
  </style></defs><g><g><g><path class="fil0" d="M31.088 20.6628l4.49074 0c2.31279,0 4.41511,0.945909 5.93906,2.46986 1.52398,1.52395 2.46989,3.62627 2.46989,5.93906l0 13.4724c0,2.31279 -0.945913,4.41511 -2.46989,5.93906 -1.52395,1.52395 -3.62627,2.46986 -5.93906,2.46986l-4.49074 0c-2.31279,0 -4.41511,-0.945913 -5.93906,-2.46986 -1.52398,-1.52394 -2.46989,-3.62627 -2.46989,-5.93906l0 -13.4724c0,-2.31279 0.945913,-4.41511 2.46989,-5.93906 1.52395,-1.52395 3.62627,-2.46986 5.93906,-2.46986zm4.49074 0.651051l-4.49074 0c-2.13307,0 -4.07251,0.872866 -5.47876,2.27911 -1.40627,1.40624 -2.27914,3.34568 -2.27914,5.47876l0 13.4724c0,2.13308 0.872866,4.07251 2.27914,5.47876 1.40624,1.40624 3.34568,2.27911 5.47876,2.27911l4.49074 0c2.13307,0 4.07251,-0.872866 5.47876,-2.27911 1.40627,-1.40624 2.27914,-3.34568 2.27914,-5.47876l0 -13.4724c0,-2.13308 -0.872866,-4.07251 -2.27914,-5.47876 -1.40624,-1.40624 -3.34568,-2.27911 -5.47876,-2.27911z"></path><path class="fil0" d="M43.9876 29.0717l0 13.4724c0,0.179772 -0.145756,0.325528 -0.325528,0.325528l-20.6576 0c-0.179772,0 -0.325528,-0.145756 -0.325528,-0.325528l0 -13.4724c0,-0.179772 0.145756,-0.325524 0.325528,-0.325524l20.6576 0c0.179772,0 0.325528,0.145752 0.325528,0.325524zm-0.651051 13.1468l0 -12.8213 -20.0065 0 0 12.8213 20.0065 0z"></path><g><path class="fil0" d="M28.3935 13.4775l9.87972 0c0.179772,0 0.325524,0.145752 0.325524,0.325524l0 7.65043c0,0.179772 -0.145752,0.325524 -0.325524,0.325524 -0.0455512,0 -0.0889173,-0.00935039 -0.128283,-0.0262638 -0.40374,-0.142618 -0.82252,-0.252787 -1.25293,-0.327094 -0.425421,-0.0734173 -0.86422,-0.111799 -1.31326,-0.111799l-4.49074 0c-0.449071,0 -0.887843,0.0383819 -1.3133,0.111799 -0.437232,0.0754764 -0.862472,0.18798 -1.27211,0.33389l0.000185039 0.000555118c-0.169315,0.0603425 -0.355543,-0.0280197 -0.41589,-0.197335 -0.0135,-0.0379213 -0.0195591,-0.0766732 -0.0189134,-0.114689l0 -7.64502c0,-0.179772 0.145752,-0.325524 0.325524,-0.325524zm9.55419 0.651047l-9.22866 0 0 6.87719c0.308547,-0.091315 0.624354,-0.165378 0.946311,-0.220957 0.464331,-0.0801496 0.939728,-0.122008 1.42267,-0.122008l4.49074 0c0.482937,0 0.958366,0.0418898 1.42263,0.122008 0.321957,0.0555787 0.637764,0.129642 0.946311,0.220957l0 -6.87719z"></path><path class="fil0" d="M31.088 13.4775l4.49074 0c0.179772,0 0.325524,0.145752 0.325524,0.325524l0 7.18527c0,0.179772 -0.145752,0.325528 -0.325524,0.325528l-4.49074 0c-0.179772,0 -0.325524,-0.145756 -0.325524,-0.325528l0 -7.18527c0,-0.179772 0.145752,-0.325524 0.325524,-0.325524zm4.16521 0.651047l-3.83969 0 0 6.53422 3.83969 0 0 -6.53422z"></path></g><path class="fil0" d="M39.4036 49.7045l1.41728 3.02151 0.0011378 -0.000555118c0.0763071,0.162732 0.00624409,0.356622 -0.156488,0.432929 -0.0461969,0.0216496 -0.0948858,0.0315236 -0.142709,0.030815l-14.3834 0c-0.179772,0 -0.325528,-0.145752 -0.325528,-0.325524 0,-0.0598819 0.0161772,-0.116012 0.0444134,-0.164209l1.41694 -3.0208 0.293724 0.137327 -0.294709 -0.138217c0.0763071,-0.162732 0.270197,-0.232795 0.432929,-0.156488 0.00488976,0.00230709 0.00971654,0.00473622 0.0144252,0.00722835 0.517012,0.251154 1.06392,0.446335 1.63267,0.57748 0.555831,0.128161 1.13617,0.19598 1.7337,0.19598l4.49074 0c0.597535,0 1.17787,-0.0678189 1.7337,-0.19598 0.572437,-0.132008 1.12279,-0.328878 1.64276,-0.582402l-9.44882e-005 -0.000185039c0.161563,-0.0787677 0.356469,-0.011626 0.435236,0.149937 0.00501181,0.0102717 0.00940945,0.0206693 0.0132559,0.0311535zm0.612882 2.83365l-1.07481 -2.29138c-0.472815,0.207882 -0.969193,0.373657 -1.4843,0.492441 -0.606457,0.139819 -1.23542,0.213819 -1.87863,0.213819l-4.49074 0c-0.643209,0 -1.27217,-0.074 -1.87863,-0.213819 -0.515106,-0.118783 -1.01148,-0.284559 -1.4843,-0.492441l-1.07481 2.29138 13.3662 0z"></path><path class="fil0" d="M33.6589 17.6283c0,-0.179772 -0.145752,-0.325528 -0.325524,-0.325528 -0.179772,0 -0.325524,0.145756 -0.325524,0.325528l0 3.36004c0,0.179772 0.145752,0.325528 0.325524,0.325528 0.179772,0 0.325524,-0.145756 0.325524,-0.325528l0 -3.36004z"></path><path class="fil0" d="M31.9861 17.0702c-0.179772,0 -0.325528,0.145756 -0.325528,0.325528 0,0.179768 0.145756,0.325524 0.325528,0.325524l2.69444 0c0.179772,0 0.325528,-0.145756 0.325528,-0.325524 0,-0.179772 -0.145756,-0.325528 -0.325528,-0.325528l-2.69444 0z"></path><path class="fil0" d="M38.5987 26.3772c0,-0.179772 -0.145752,-0.325528 -0.325524,-0.325528 -0.179772,0 -0.325528,0.145756 -0.325528,0.325528l0 18.8613c0,0.179768 0.145756,0.325524 0.325528,0.325524 0.179772,0 0.325524,-0.145756 0.325524,-0.325524l0 -18.8613z"></path><path class="fil0" d="M26.9227 25.4791c0,-0.179768 -0.145756,-0.325524 -0.325528,-0.325524 -0.179768,0 -0.325524,0.145756 -0.325524,0.325524l0 10.7779c0,0.179772 0.145756,0.325528 0.325524,0.325528 0.179772,0 0.325528,-0.145756 0.325528,-0.325528l0 -10.7779z"></path></g></g><rect class="fil1" x="6.66667" y="6.66667" width="53.3333" height="53.3333"></rect></g><path class="fil0" d="M33.3333 0c9.20466,0 17.538,3.73099 23.5702,9.76317 6.03218,6.03219 9.76317,14.3655 9.76317,23.5702 0,9.20466 -3.73099,17.538 -9.76317,23.5702 -6.03219,6.03218 -14.3655,9.76317 -23.5702,9.76317 -9.20466,0 -17.538,-3.73099 -23.5702,-9.76317 -6.03218,-6.03219 -9.76317,-14.3655 -9.76317,-23.5702 0,-9.20466 3.73099,-17.538 9.76317,-23.5702 6.03219,-6.03218 14.3655,-9.76317 23.5702,-9.76317zm22.4205 10.9128c-5.73785,-5.73786 -13.6647,-9.2868 -22.4205,-9.2868 -8.75581,0 -16.6827,3.54894 -22.4205,9.2868 -5.73786,5.73785 -9.2868,13.6647 -9.2868,22.4205 0,8.75581 3.54894,16.6827 9.2868,22.4205 5.73785,5.73786 13.6647,9.2868 22.4205,9.2868 8.75581,0 16.6827,-3.54894 22.4205,-9.2868 5.73786,-5.73785 9.2868,-13.6647 9.2868,-22.4205 0,-8.75581 -3.54894,-16.6827 -9.2868,-22.4205z"></path></svg>
