<?xml version="1.0" encoding="UTF-8" standalone="no"?>
<!-- Created with Inkscape (http://www.inkscape.org/) -->

<svg
   xmlns:dc="http://purl.org/dc/elements/1.1/"
   xmlns:cc="http://creativecommons.org/ns#"
   xmlns:rdf="http://www.w3.org/1999/02/22-rdf-syntax-ns#"
   xmlns:svg="http://www.w3.org/2000/svg"
   xmlns="http://www.w3.org/2000/svg"
   xmlns:sodipodi="http://sodipodi.sourceforge.net/DTD/sodipodi-0.dtd"
   xmlns:inkscape="http://www.inkscape.org/namespaces/inkscape"
   id="svg3336"
   version="1.1"
   inkscape:version="0.91 r13725"
   width="415.41953"
   height="150.92236"
   viewBox="0 0 415.41953 150.92236"
   sodipodi:docname="mains water shutoff.svg">
  <metadata
     id="metadata3342">
    <rdf:RDF>
      <cc:Work
         rdf:about="">
        <dc:format>image/svg+xml</dc:format>
        <dc:type
           rdf:resource="http://purl.org/dc/dcmitype/StillImage" />
        <dc:title></dc:title>
      </cc:Work>
    </rdf:RDF>
  </metadata>
  <defs
     id="defs3340" />
  <sodipodi:namedview
     pagecolor="#ffffff"
     bordercolor="#666666"
     borderopacity="1"
     objecttolerance="10"
     gridtolerance="10"
     guidetolerance="10"
     inkscape:pageopacity="0"
     inkscape:pageshadow="2"
     inkscape:window-width="1920"
     inkscape:window-height="1018"
     id="namedview3338"
     showgrid="false"
     inkscape:zoom="2.3932204"
     inkscape:cx="119.77958"
     inkscape:cy="76.81232"
     inkscape:window-x="-8"
     inkscape:window-y="-8"
     inkscape:window-maximized="1"
     inkscape:current-layer="svg3336"
     fit-margin-top="0"
     fit-margin-left="0"
     fit-margin-right="0"
     fit-margin-bottom="0" />
  <rect
     style="fill:#ffffff;fill-opacity:1;stroke:#fff200;stroke-width:12.87289143;stroke-linecap:butt;stroke-linejoin:round;stroke-miterlimit:4;stroke-dasharray:none;stroke-opacity:1"
     id="rect4133"
     width="402.54663"
     height="138.04947"
     x="6.4364457"
     y="6.4364457" />
  <rect
     style="fill:#fff200;fill-opacity:1;stroke:#fff200;stroke-width:12.61499977;stroke-linecap:butt;stroke-linejoin:round;stroke-miterlimit:4;stroke-dasharray:none;stroke-opacity:1"
     id="rect4141"
     width="225.63739"
     height="73.958923"
     x="147.95764"
     y="34.7211" />
  <text
     xml:space="preserve"
     style="font-style:normal;font-weight:normal;font-size:40.67721558px;line-height:125%;font-family:sans-serif;letter-spacing:0px;word-spacing:0px;fill:#000000;fill-opacity:1;stroke:none;stroke-width:1px;stroke-linecap:butt;stroke-linejoin:miter;stroke-opacity:1"
     x="255.32431"
     y="65.053429"
     id="text4135"
     sodipodi:linespacing="125%"
     transform="scale(1.0169304,0.98335148)"><tspan
       sodipodi:role="line"
       id="tspan4137"
       x="257.98279"
       y="65.053429"
       style="font-style:normal;font-variant:normal;font-weight:bold;font-stretch:normal;font-size:33.05023956px;font-family:sans-serif;-inkscape-font-specification:'sans-serif Bold';text-align:center;letter-spacing:-2.98977542px;text-anchor:middle"
       dx="0">Mains water </tspan><tspan
       sodipodi:role="line"
       x="253.82942"
       y="106.36623"
       id="tspan4139"
       style="font-style:normal;font-variant:normal;font-weight:bold;font-stretch:normal;font-size:33.05023956px;font-family:sans-serif;-inkscape-font-specification:'sans-serif Bold';text-align:center;letter-spacing:-2.98977542px;text-anchor:middle">shut off valve</tspan></text>
  <g
     transform="translate(28.455797,26.366566)"
     id="g4"
     style="fill:#000000;fill-opacity:1;stroke:none;stroke-opacity:1">
    <path
       style="fill:#000000;fill-opacity:1;stroke:none;stroke-opacity:1"
       inkscape:connector-curvature="0"
       d="m 81.8,78.2 c -4.3,-4.1 -11.4,-4.1 -15.7,0 -2.8,2.7 -7.4,2.7 -10.3,0 -4.3,-4.1 -11.4,-4.1 -15.7,0 -2.8,2.7 -7.4,2.7 -10.3,0 -4.3,-4.1 -11.4,-4.1 -15.7,0 -2.8,2.7 -7.4,2.7 -10.3,0 l -2.7,2.9 c 4.3,4.1 11.4,4.1 15.7,0 2.8,-2.7 7.4,-2.7 10.3,0 2.2,2 5,3.1 7.9,3.1 2.8,0 5.7,-1 7.9,-3.1 2.8,-2.7 7.4,-2.7 10.3,0 4.3,4.1 11.4,4.1 15.7,0 2.8,-2.7 7.4,-2.7 10.3,0 4.3,4.1 11.4,4.1 15.7,0 l -2.7,-2.9 c -2.9,2.7 -7.5,2.7 -10.4,0 z"
       id="path6" />
    <path
       style="fill:#000000;fill-opacity:1;stroke:none;stroke-opacity:1"
       inkscape:connector-curvature="0"
       d="m 81.8,89.6 c -4.3,-4.1 -11.4,-4.1 -15.7,0 -2.8,2.7 -7.4,2.7 -10.3,0 -4.3,-4.1 -11.4,-4.1 -15.7,0 -2.8,2.7 -7.4,2.7 -10.3,0 -4.3,-4.1 -11.4,-4.1 -15.7,0 -2.8,2.7 -7.4,2.7 -10.3,0 l -2.7,2.9 c 4.3,4.1 11.4,4.1 15.7,0 2.8,-2.7 7.4,-2.7 10.3,0 2.2,2 5,3.1 7.9,3.1 2.8,0 5.7,-1 7.9,-3.1 2.8,-2.7 7.4,-2.7 10.3,0 4.3,4.1 11.4,4.1 15.7,0 2.8,-2.7 7.4,-2.7 10.3,0 4.3,4.1 11.4,4.1 15.7,0 l -2.7,-2.9 c -2.9,2.6 -7.5,2.6 -10.4,0 z"
       id="path8" />
    <path
       style="fill:#000000;fill-opacity:1;stroke:none;stroke-opacity:1"
       inkscape:connector-curvature="0"
       d="M 11.2,50.4 C 9.9,52 3,60.1 3,65 c 0,5.5 4.4,10 9.8,10 5.4,0 9.8,-4.5 9.8,-10 0,-4.9 -6.9,-13 -8.3,-14.6 l -1.5,-1.7 -1.6,1.7 z M 18.5,65 c 0,3.3 -2.6,6 -5.8,6 -3.2,0 -5.8,-2.7 -5.8,-6 0,-2.1 3,-6.7 5.8,-10.2 2.8,3.5 5.8,8.1 5.8,10.2 z"
       id="path10" />
    <path
       style="fill:#000000;fill-opacity:1;stroke:none;stroke-opacity:1"
       inkscape:connector-curvature="0"
       d="m 26.3,23.3 45.6,0 0,-22.8 -53.4,0 C 8.6,0.5 0.6,8.5 0.6,18.4 l 0,28.1 25.8,0 0,-23.2 z"
       id="path12" />
    <rect
       style="fill:#000000;fill-opacity:1;stroke:none;stroke-opacity:1"
       x="75.900002"
       y="0.5"
       width="19.6"
       height="22.799999"
       id="rect14" />
  </g>
</svg>
