<?xml version="1.0" encoding="UTF-8" standalone="no"?>
<svg
   xmlns:dc="http://purl.org/dc/elements/1.1/"
   xmlns:cc="http://creativecommons.org/ns#"
   xmlns:rdf="http://www.w3.org/1999/02/22-rdf-syntax-ns#"
   xmlns:svg="http://www.w3.org/2000/svg"
   xmlns="http://www.w3.org/2000/svg"
   xmlns:sodipodi="http://sodipodi.sourceforge.net/DTD/sodipodi-0.dtd"
   xmlns:inkscape="http://www.inkscape.org/namespaces/inkscape"
   version="1.1"
   x="0px"
   y="0px"
   viewBox="0 0 123.5116 123.5116"
   enable-background="new 0 0 100 100"
   xml:space="preserve"
   id="svg2"
   inkscape:version="0.91 r13725"
   sodipodi:docname="no_open_flame.svg"
   width="123.5116"
   height="123.5116"><metadata
     id="metadata16"><rdf:RDF><cc:Work
         rdf:about=""><dc:format>image/svg+xml</dc:format><dc:type
           rdf:resource="http://purl.org/dc/dcmitype/StillImage" /><dc:title></dc:title></cc:Work></rdf:RDF></metadata><defs
     id="defs14" /><sodipodi:namedview
     pagecolor="#ffffff"
     bordercolor="#666666"
     borderopacity="1"
     objecttolerance="10"
     gridtolerance="10"
     guidetolerance="10"
     inkscape:pageopacity="0"
     inkscape:pageshadow="2"
     inkscape:window-width="819"
     inkscape:window-height="716"
     id="namedview12"
     showgrid="false"
     fit-margin-top="0"
     fit-margin-left="0"
     fit-margin-right="0"
     fit-margin-bottom="0"
     inkscape:zoom="2.36"
     inkscape:cx="62.60326"
     inkscape:cy="65.569362"
     inkscape:window-x="38"
     inkscape:window-y="128"
     inkscape:window-maximized="0"
     inkscape:current-layer="svg2" /><circle
     style="fill:#ffffff;fill-opacity:1;stroke:#bd0000;stroke-width:5.897;stroke-linecap:butt;stroke-linejoin:round;stroke-miterlimit:4;stroke-dasharray:none;stroke-opacity:1"
     id="path4144"
     cx="61.755802"
     cy="61.755802"
     r="58.807262" /><g
     id="g4"
     style="fill:#bd0000;fill-opacity:1"
     transform="translate(12.60326,7.9422414)"><g
       id="g6"
       style="fill:#bd0000;fill-opacity:1"><path
         d="m 62.185,23.744 c 1.835,-1.465 2.537,-3.184 2.537,-5.069 0,-1.408 -1.557,-3.353 -2.537,-5.071 -1.264,-2.322 0.292,-5.491 0,-7.604 -2.919,2.429 -5.074,4.965 -5.074,7.604 0,1.408 0.987,3.407 2.538,5.071 1.772,2.052 2.257,4.364 2.536,5.069 z"
         id="path8"
         style="fill:#bd0000;fill-opacity:1"
         inkscape:connector-curvature="0" /><path
         d="M 62.321,84.139 C 68.948,80.337 74.003,73.695 74.862,64.309 75.766,54.372 84.712,48.969 85,49.096 75.476,44.703 69.786,51.948 69.786,51.631 69.786,50.384 75.135,33.824 64.722,28.817 52.727,23.047 49.41,18.444 49.511,11.07 c -0.009,0.298 -7.256,11.978 -2.536,17.747 7.326,8.932 4.234,15.847 0,15.211 -7.11,-1.066 -6.252,-10.338 -5.072,-12.676 -3.716,-0.392 -8.015,1.919 -10.141,5.069 -6.396,9.502 7.468,18.594 2.538,25.352 -3.752,5.148 -10.162,-4.99 -10.141,-5.069 -2.656,13.861 2.349,23.003 10.115,27.633 -11.516,0.793 -19.429,2.432 -19.429,4.324 0,2.669 15.705,4.833 35.077,4.833 C 69.296,93.493 85,91.329 85,88.66 85,86.593 75.573,84.829 62.321,84.139 Z M 41.902,66.845 c 2.264,-4.082 7.996,-4.89 5.072,-10.142 0.038,0.079 6.218,1.008 10.136,5.069 6.012,6.205 5.329,17.357 -5.063,17.751 -13.292,0.488 -11.926,-9.47 -10.145,-12.678 z"
         id="path10"
         style="fill:#bd0000;fill-opacity:1"
         inkscape:connector-curvature="0" /></g></g><path
     style="fill:none;fill-rule:evenodd;stroke:#bd0000;stroke-width:5.75367641;stroke-linecap:round;stroke-linejoin:miter;stroke-miterlimit:4;stroke-dasharray:none;stroke-opacity:1"
     d="M 19.419127,99.007688 101.76731,21.74432"
     id="path4146"
     inkscape:connector-curvature="0" /></svg>