<?xml version="1.0" encoding="UTF-8" standalone="no"?>
<!-- Generator: Adobe Illustrator 16.0.0, SVG Export Plug-In . SVG Version: 6.00 Build 0)  -->

<svg
   xmlns:dc="http://purl.org/dc/elements/1.1/"
   xmlns:cc="http://creativecommons.org/ns#"
   xmlns:rdf="http://www.w3.org/1999/02/22-rdf-syntax-ns#"
   xmlns:svg="http://www.w3.org/2000/svg"
   xmlns="http://www.w3.org/2000/svg"
   xmlns:sodipodi="http://sodipodi.sourceforge.net/DTD/sodipodi-0.dtd"
   xmlns:inkscape="http://www.inkscape.org/namespaces/inkscape"
   version="1.1"
   id="svg2"
   inkscape:output_extension="org.inkscape.output.svg.inkscape"
   sodipodi:docname="Powerlines_6m.svg"
   inkscape:version="0.91 r13725"
   sodipodi:version="0.32"
   x="0px"
   y="0px"
   width="695.85144"
   height="647.76813"
   viewBox="0 0 695.85144 647.76813"
   enable-background="new 0 0 580 580"
   xml:space="preserve"><metadata
     id="metadata18"><rdf:RDF><cc:Work
         rdf:about=""><dc:format>image/svg+xml</dc:format><dc:type
           rdf:resource="http://purl.org/dc/dcmitype/StillImage" /><dc:title></dc:title></cc:Work></rdf:RDF></metadata><sodipodi:namedview
     showgrid="false"
     inkscape:cy="301.73693"
     inkscape:cx="44.854873"
     inkscape:zoom="0.70710678"
     pagecolor="#ffffff"
     bordercolor="#666666"
     guidetolerance="10.0"
     objecttolerance="10.0"
     gridtolerance="10.0"
     borderopacity="1.0"
     id="base"
     inkscape:current-layer="svg2"
     inkscape:window-y="-8"
     inkscape:window-x="-8"
     inkscape:pageopacity="0.0"
     inkscape:pageshadow="2"
     inkscape:window-width="1920"
     inkscape:window-height="1018"
     fit-margin-top="0"
     fit-margin-left="0"
     fit-margin-right="0"
     fit-margin-bottom="0"
     inkscape:window-maximized="1" /><defs
     id="defs4"><inkscape:perspective
       inkscape:vp_z="580 : 290 : 1"
       inkscape:vp_y="0 : 1000 : 0"
       inkscape:vp_x="0 : 290 : 1"
       sodipodi:type="inkscape:persp3d"
       id="perspective12"
       inkscape:persp3d-origin="290 : 193.33333 : 1" /><inkscape:perspective
       inkscape:vp_z="58.232063 : 29.116032 : 1"
       inkscape:vp_y="0 : 1000 : 0"
       inkscape:vp_x="0 : 29.116032 : 1"
       sodipodi:type="inkscape:persp3d"
       id="perspective6807"
       inkscape:persp3d-origin="29.116032 : 19.410688 : 1" /><inkscape:perspective
       inkscape:vp_z="580 : 290 : 1"
       inkscape:vp_y="0 : 1000 : 0"
       inkscape:vp_x="0 : 290 : 1"
       sodipodi:type="inkscape:persp3d"
       id="perspective6954"
       inkscape:persp3d-origin="290 : 193.33333 : 1" /><inkscape:perspective
       inkscape:vp_z="480 : 240 : 1"
       inkscape:vp_y="0 : 1000 : 0"
       inkscape:vp_x="0 : 240 : 1"
       sodipodi:type="inkscape:persp3d"
       id="perspective2541"
       inkscape:persp3d-origin="240 : 160 : 1" /><inkscape:perspective
       inkscape:vp_z="430 : 215 : 1"
       inkscape:vp_y="0 : 1000 : 0"
       inkscape:vp_x="0 : 215 : 1"
       sodipodi:type="inkscape:persp3d"
       id="perspective2750"
       inkscape:persp3d-origin="215 : 143.33333 : 1" /><inkscape:perspective
       inkscape:vp_z="177.85829 : 151.79668 : 1"
       inkscape:vp_y="0 : 1000 : 0"
       inkscape:vp_x="0 : 151.79668 : 1"
       sodipodi:type="inkscape:persp3d"
       id="perspective3730"
       inkscape:persp3d-origin="88.929146 : 101.19778 : 1" /></defs><rect
     style="fill:#ffffff;fill-opacity:1;stroke:#000000;stroke-width:24.10000038;stroke-miterlimit:4;stroke-dasharray:none;stroke-opacity:1"
     id="rect4146"
     width="671.75146"
     height="623.66815"
     x="12.05"
     y="12.05" /><path
     fill="param(fill) #FFF"
     stroke="param(outline) #000"
     stroke-width="param(outline-width) 1"
     d="m 263.2509,124.1137 c 14.875,-0.59 28.168,10.389 43.156,10.625 15.214,0.121 30.649,-9.92 46.938,-9.625 16.062,0.234 32.411,11.182 48.813,11.125 16.118,-0.355 31.391,-12.007 48.188,-12.125 12.408,-0.042 25.742,6.125 38.5,9.5 l 0,-31.375 c -12.758,-3.350003 -26.092,-9.438003 -38.5,-9.438003 -16.797,0.119 -32.069,11.770003 -48.188,12.125003 -16.401,0.058 -32.751,-10.858003 -48.813,-11.094003 -16.289,-0.413 -31.724,9.683003 -46.938,9.563003 -14.987,-0.293 -28.282,-11.065003 -43.156,-10.594003 -15.271,0.594 -32.007,12.416003 -46.938,13.125003 -0.271,0.004 -0.542,0.003 -0.813,0 l 0,31.281 c 0.271,0.003 0.541,0.036 0.813,0.031 14.931,-0.588 31.667,-12.71 46.938,-13.124 z"
     id="path12"
     inkscape:connector-curvature="0" /><path
     fill="param(fill) #FFF"
     stroke="param(outline) #000"
     stroke-width="param(outline-width) 1"
     d="m 263.2509,182.4887 c 14.875,-0.473 28.168,10.299 43.156,10.594 15.214,0.118 30.649,-9.977 46.938,-9.563 16.062,0.237 32.411,11.154 48.813,11.094 16.118,-0.353 31.391,-12.01 48.188,-12.125 12.408,0 25.742,6.088 38.5,9.438 l 0,-31.281 c -12.759,-3.35 -26.092,-9.438 -38.5,-9.438 -16.797,0.119 -32.069,11.741 -48.188,12.094 -16.401,0.06 -32.751,-10.856 -48.813,-11.094 -16.289,-0.414 -31.724,9.681 -46.938,9.563 -14.519,-0.286 -27.433,-10.393 -41.75,-10.594 -0.462,-0.006 -0.941,0.017 -1.406,0.031 -15.271,0.59 -32.007,12.382 -46.938,13.094 -0.271,0.004 -0.542,0.003 -0.813,0 l 0,31.313 c 0.271,0.003 0.541,0.004 0.813,0 14.931,-0.713 31.667,-12.536 46.938,-13.126 z"
     id="path14"
     inkscape:connector-curvature="0" /><path
     fill="param(fill) #FFF"
     stroke="param(outline) #000"
     stroke-width="param(outline-width) 1"
     d="m 505.5099,86.715697 0,181.005003 -306.683,0 0,-181.005003 -20,0 0,191.005003 c 0,5.523 4.477,10 10,10 l 112.864,0 c -2.421,18.413 -10.862,58.731 -25.295,104.901 -14.953,47.833 -40.154,114.187 -75.296,158.663 -3.391,4.292 -2.661,10.521 1.631,13.912 1.818,1.437 3.983,2.134 6.134,2.134 2.925,0 5.823,-1.291 7.778,-3.765 7.087,-8.97 13.774,-18.746 20.068,-29.032 0.649,-0.254 1.281,-0.578 1.865,-1.02 l 111.957,-84.686 110.83,83.833 c 6.622,10.971 13.683,21.394 21.197,30.904 1.955,2.474 4.853,3.765 7.778,3.765 2.149,0 4.315,-0.697 6.134,-2.134 4.292,-3.392 5.022,-9.62 1.631,-13.912 -35.142,-44.477 -60.343,-110.83 -75.296,-158.663 -14.434,-46.17 -22.874,-86.488 -25.296,-104.901 l 117.999,0 c 5.522,0 10,-4.477 10,-10 l 0,-191.004003 -20,0 z m -106.388,296.038003 -38.951,-36.056 23.985,-22.202 c 3.652,16.756 8.66,36.742 14.966,58.258 z m -6.293,14.615 -42.297,31.994 -43.839,-33.161 42.438,-39.283 43.698,40.45 z m -92.403,-15.806 c 6.052,-20.753 10.893,-40.047 14.462,-56.342 l 23.202,21.478 -37.664,34.864 z m -45.746,120.304 c 15.406,-30.963 27.694,-63.638 36.88,-91.657 l 3.559,-3.295 42.545,32.182 -82.984,62.77 z m 108.72,-62.771 41.002,-31.015 3.65,3.379 c 8.916,27.057 20.696,58.325 35.354,88.154 l -80.006,-60.518 z m 17.26,-131.804 -31.529,29.186 -30.727,-28.442 c 1.531,-8.136 2.607,-15.006 3.221,-20.315 l 55.952,0 c 0.596,5.144 1.627,11.763 3.083,19.571 z"
     id="path16"
     inkscape:connector-curvature="0" /></svg>