<?xml version="1.0" encoding="UTF-8" standalone="no"?>
<svg
   xmlns:dc="http://purl.org/dc/elements/1.1/"
   xmlns:cc="http://creativecommons.org/ns#"
   xmlns:rdf="http://www.w3.org/1999/02/22-rdf-syntax-ns#"
   xmlns:svg="http://www.w3.org/2000/svg"
   xmlns="http://www.w3.org/2000/svg"
   xmlns:sodipodi="http://sodipodi.sourceforge.net/DTD/sodipodi-0.dtd"
   xmlns:inkscape="http://www.inkscape.org/namespaces/inkscape"
   version="1.1"
   x="0px"
   y="0px"
   viewBox="0 0 93.328629 76.940483"
   enable-background="new 0 0 100 100"
   xml:space="preserve"
   id="svg2"
   inkscape:version="0.91 r13725"
   sodipodi:docname="Ram.svg"
   width="93.328629"
   height="76.940483"><metadata
     id="metadata20"><rdf:RDF><cc:Work
         rdf:about=""><dc:format>image/svg+xml</dc:format><dc:type
           rdf:resource="http://purl.org/dc/dcmitype/StillImage" /><dc:title></dc:title></cc:Work></rdf:RDF></metadata><defs
     id="defs18" /><sodipodi:namedview
     pagecolor="#ffffff"
     bordercolor="#666666"
     borderopacity="1"
     objecttolerance="10"
     gridtolerance="10"
     guidetolerance="10"
     inkscape:pageopacity="0"
     inkscape:pageshadow="2"
     inkscape:window-width="1192"
     inkscape:window-height="819"
     id="namedview16"
     showgrid="false"
     inkscape:zoom="2.36"
     inkscape:cx="46.66833"
     inkscape:cy="38.439872"
     inkscape:window-x="107"
     inkscape:window-y="111"
     inkscape:window-maximized="0"
     inkscape:current-layer="svg2"
     fit-margin-top="0"
     fit-margin-left="0"
     fit-margin-right="0"
     fit-margin-bottom="0" /><g
     id="g4"
     style="fill:#ffffff;fill-opacity:1;stroke:#000000;stroke-width:3.29999995;stroke-miterlimit:4;stroke-dasharray:none;stroke-opacity:1"
     transform="translate(-3.3316697,-11.499391)"><path
       d="m 63.1,37.1 c 0,0 0,0 0,0 0,0 0,0 0,0 z"
       id="path6"
       style="fill:#ffffff;fill-opacity:1;stroke:#000000;stroke-width:3.29999995;stroke-miterlimit:4;stroke-dasharray:none;stroke-opacity:1"
       inkscape:connector-curvature="0" /><path
       d="m 68.8,69.3 c -6.2,0 -11.9,-2.4 -16.1,-6.8 -3.2,-3.3 -5.1,-7.5 -4.9,-10.9 0.3,-5.5 3.6,-6.1 5,-6.1 0.5,0 0.9,0.1 1.4,0.2 2.6,0.6 4.7,2.5 5.7,5.2 0.2,0.6 2.5,2.2 6.1,2.2 1.4,0 2.9,-0.3 4.3,-0.8 -1.2,-3.3 -2.5,-6.5 -4.1,-9.5 1.6,0 4.8,-0.6 7.9,-5.3 0,0 -3,-5.3 -11,-0.2 0,0 0,0.1 0,0 -1.6,1.3 -3.8,1.7 -5.9,1.7 -1.4,0 -2.8,-0.3 -4,-1 C 50.6,36.6 47.6,35.7 45.6,35.2 44.8,35 44,34.6 43.4,34 41.7,32.4 41.5,29.9 42.7,28.1 42.8,27.9 42.9,27.8 43,27.6 34.1,30.2 30.1,35.9 30.1,35.9 L 16.5,49.5 c -4.9,5 -5.3,7.1 -5.7,11.6 -0.3,3.1 3.5,4.6 5.9,5.2 1.1,0.3 2.2,0.3 3.2,-0.1 2.9,-0.9 9.7,-2.6 15.6,-2 5.2,0.6 1.1,12.9 5.1,17.1 5.8,6 25.6,9.6 32.1,-2.9 1.2,-2.4 1.6,-5.8 1.4,-9.7 -1.8,0.4 -3.6,0.6 -5.3,0.6 z m -30.6,-21.8 -0.9,0 c -1.4,0 -2.5,-1.1 -2.5,-2.5 0,-1.4 1.1,-2.5 2.5,-2.5 l 0.9,0 c 1.4,0 2.5,1.1 2.5,2.5 -0.1,1.4 -1.2,2.5 -2.5,2.5 z"
       id="path8"
       style="fill:#ffffff;fill-opacity:1;stroke:#000000;stroke-width:3.29999995;stroke-miterlimit:4;stroke-dasharray:none;stroke-opacity:1"
       inkscape:connector-curvature="0" /><path
       d="M 61,14.2 C 48.9,17.6 47,24.8 44.3,29 c -1,1.6 -0.2,3.8 1.7,4.3 2.3,0.6 5.3,1.5 8.1,3 2.7,1.4 5.9,0.9 8,-1.3 1.8,-1.8 4.4,-3.3 7.7,-2.4 7.3,1.9 13,14.4 4.3,19.9 -7.4,4.7 -14.9,1.6 -15.9,-1 -0.7,-2 -2.3,-3.6 -4.4,-4 -2,-0.4 -4,0.2 -4.2,4.2 C 49.2,59.9 63.8,76 85.3,61.9 106.7,47.7 90.1,6 61,14.2 Z"
       id="path10"
       style="fill:#ffffff;fill-opacity:1;stroke:#000000;stroke-width:3.29999995;stroke-miterlimit:4;stroke-dasharray:none;stroke-opacity:1"
       inkscape:connector-curvature="0" /><path
       d="m 44.1,25.4 1.5,-5.3 c 0,0 -2.1,-8.2 -10.5,-5.1 -8.4,3.1 -3.9,17.2 -3.9,17.2 0,0 4.7,-6.4 12.9,-6.8 z"
       id="path12"
       style="fill:#ffffff;fill-opacity:1;stroke:#000000;stroke-width:3.29999995;stroke-miterlimit:4;stroke-dasharray:none;stroke-opacity:1"
       inkscape:connector-curvature="0" /></g><path
     d="m 13.46833,34.400609 c 0,0 -4.2999997,3 -6.0999997,6.6 0,0 -8.9,-11.4 -4.5,-16.3 4.4,-4.9 6,4.3 10.5999997,9.7 z"
     id="path14"
     style="fill:#ffffff;fill-opacity:1;stroke:#000000;stroke-width:3.29999995;stroke-miterlimit:4;stroke-dasharray:none;stroke-opacity:1"
     inkscape:connector-curvature="0" /></svg>