<?xml version="1.0" encoding="UTF-8" standalone="no"?>
<svg
   xmlns:dc="http://purl.org/dc/elements/1.1/"
   xmlns:cc="http://creativecommons.org/ns#"
   xmlns:rdf="http://www.w3.org/1999/02/22-rdf-syntax-ns#"
   xmlns:svg="http://www.w3.org/2000/svg"
   xmlns="http://www.w3.org/2000/svg"
   xmlns:sodipodi="http://sodipodi.sourceforge.net/DTD/sodipodi-0.dtd"
   xmlns:inkscape="http://www.inkscape.org/namespaces/inkscape"
   version="1.1"
   x="0px"
   y="0px"
   viewBox="0 0 108.25229 96.387878"
   enable-background="new 0 0 100 100"
   xml:space="preserve"
   id="svg2"
   inkscape:version="0.91 r13725"
   sodipodi:docname="seat.svg"
   width="108.25229"
   height="96.387878"><metadata
     id="metadata12"><rdf:RDF><cc:Work
         rdf:about=""><dc:format>image/svg+xml</dc:format><dc:type
           rdf:resource="http://purl.org/dc/dcmitype/StillImage" /><dc:title></dc:title></cc:Work></rdf:RDF></metadata><defs
     id="defs10" /><sodipodi:namedview
     pagecolor="#ffffff"
     bordercolor="#666666"
     borderopacity="1"
     objecttolerance="10"
     gridtolerance="10"
     guidetolerance="10"
     inkscape:pageopacity="0"
     inkscape:pageshadow="2"
     inkscape:window-width="1920"
     inkscape:window-height="1018"
     id="namedview8"
     showgrid="false"
     fit-margin-top="0"
     fit-margin-left="0"
     fit-margin-right="0"
     fit-margin-bottom="0"
     inkscape:zoom="2.36"
     inkscape:cx="52.431229"
     inkscape:cy="46.075294"
     inkscape:window-x="-8"
     inkscape:window-y="-8"
     inkscape:window-maximized="1"
     inkscape:current-layer="svg2" /><rect
     style="fill:#ffffff;fill-opacity:1;stroke:#000000;stroke-width:4.01499987;stroke-linecap:butt;stroke-linejoin:round;stroke-miterlimit:4;stroke-dasharray:none;stroke-opacity:1"
     id="rect4140"
     width="104.23729"
     height="92.372879"
     x="2.0074999"
     y="2.0074999" /><g
     id="g4"
     transform="translate(2.4312288,0.31258464)"><path
       d="m 23.96,22.41 c -0.957,0 -1.745,0.782 -1.745,1.731 l 0,7.819 c 0,0.949 0.788,1.703 1.745,1.703 l 3.826,0 0,1.703 -3.826,0 c -0.957,0 -1.745,0.782 -1.745,1.731 l 0,7.791 c 0,0.95 0.788,1.732 1.745,1.732 l 3.826,0 0,2.987 -1.182,0 -4.98,0 c -0.984,0 -1.857,0.503 -2.363,1.341 l -4.643,7.651 c -0.084,0.111 -0.169,0.224 -0.197,0.335 -0.169,0.391 -0.225,0.838 0,1.229 0.057,0.084 0.113,0.14 0.197,0.224 l 0.338,2.401 c 0.056,0.363 0.422,0.67 0.787,0.67 l 1.857,0 0,11.924 c 0,1.201 1.041,2.206 2.279,2.206 l 1.406,0 c 1.238,0 2.251,-1.005 2.251,-2.206 l 0,-11.922 8.948,0 35.059,0 8.947,0 0,11.924 c 0,1.201 1.013,2.206 2.223,2.206 l 1.436,0 c 1.237,0 2.25,-1.005 2.25,-2.206 l 0,-11.924 1.886,0 c 0.365,0 0.703,-0.307 0.76,-0.67 l 0.394,-2.43 c 0.028,-0.056 0.085,-0.111 0.141,-0.195 0.226,-0.391 0.169,-0.865 0,-1.257 -0.028,-0.056 -0.056,-0.111 -0.112,-0.195 l 0,0 C 85.44,58.657 85.411,58.602 85.384,58.573 L 80.74,50.95 c -0.507,-0.811 -1.351,-1.341 -2.336,-1.341 l -4.98,0 -1.21,0 0,-2.987 3.855,0 c 0.956,0 1.744,-0.782 1.744,-1.732 l 0,-7.791 c 0,-0.949 -0.788,-1.731 -1.744,-1.731 l -3.855,0 0,-1.703 3.855,0 c 0.956,0 1.744,-0.754 1.744,-1.703 l 0,-7.819 c 0,-0.949 -0.788,-1.731 -1.744,-1.731 l -52.109,0 0,-0.002 z m 0,1.592 52.109,0 c 0.112,0 0.141,0.056 0.141,0.14 l 0,7.819 c 0,0.084 -0.028,0.14 -0.141,0.14 l -52.109,0 c -0.085,0 -0.141,-0.056 -0.141,-0.14 l 0,-7.819 c 0,-0.084 0.056,-0.14 0.141,-0.14 l 0,0 z m 5.402,9.662 2.729,0 0,1.703 -2.729,0 0,-1.703 0,0 z m 4.332,0 32.64,0 0,1.703 -32.64,0 0,-1.703 0,0 z m 34.215,0 2.729,0 0,1.703 -2.729,0 0,-1.703 0,0 z m -43.949,3.296 52.109,0 c 0.112,0 0.141,0.056 0.141,0.139 l 0,7.791 c 0,0.084 -0.028,0.141 -0.141,0.141 l -52.109,0 c -0.085,0 -0.141,-0.057 -0.141,-0.141 l 0,-7.791 c 0,-0.083 0.056,-0.139 0.141,-0.139 l 0,0 z m 5.402,9.662 2.729,0 0,2.987 -2.729,0 0,-2.987 0,0 z m 4.332,0 32.64,0 0,2.987 -32.64,0 0,-2.987 0,0 z m 34.215,0 2.729,0 0,2.987 -2.729,0 0,-2.987 0,0 z m -46.285,4.579 4.98,0 46.819,0 4.98,0 c 0.226,0 0.872,0.335 0.985,0.559 l 4.586,7.512 -16.43,0 -35.059,0 -16.404,0 4.559,-7.512 c 0.14,-0.224 0.759,-0.559 0.984,-0.559 l 0,0 z m -5.346,9.634 16.207,0 35.059,0 16.206,0 -0.168,1.033 -16.038,0 -35.059,0 -16.066,0 -0.141,-1.033 0,0 z m 2.926,2.625 2.758,0 0,11.924 c 0,0.363 -0.31,0.643 -0.676,0.643 l -1.406,0 c -0.395,0 -0.676,-0.279 -0.676,-0.643 l 0,-11.924 0,0 z m 58.891,0 2.729,0 0,11.924 c 0,0.363 -0.31,0.643 -0.675,0.643 l -1.436,0 c -0.365,0 -0.619,-0.279 -0.619,-0.643 l 0,-11.924 0.001,0 z"
       id="path6"
       inkscape:connector-curvature="0" /></g></svg>