<?xml version="1.0" encoding="UTF-8" standalone="no"?>
<svg
   xmlns:dc="http://purl.org/dc/elements/1.1/"
   xmlns:cc="http://creativecommons.org/ns#"
   xmlns:rdf="http://www.w3.org/1999/02/22-rdf-syntax-ns#"
   xmlns:svg="http://www.w3.org/2000/svg"
   xmlns="http://www.w3.org/2000/svg"
   xmlns:sodipodi="http://sodipodi.sourceforge.net/DTD/sodipodi-0.dtd"
   xmlns:inkscape="http://www.inkscape.org/namespaces/inkscape"
   version="1.1"
   x="0px"
   y="0px"
   viewBox="0 0 157.48468 141.80687"
   enable-background="new 0 0 96.13 99.999"
   xml:space="preserve"
   id="svg2"
   inkscape:version="0.91 r13725"
   sodipodi:docname="Slip.svg"
   width="157.48468"
   height="141.80687"><metadata
     id="metadata20"><rdf:RDF><cc:Work
         rdf:about=""><dc:format>image/svg+xml</dc:format><dc:type
           rdf:resource="http://purl.org/dc/dcmitype/StillImage" /><dc:title></dc:title></cc:Work></rdf:RDF></metadata><defs
     id="defs18" /><sodipodi:namedview
     pagecolor="#ffffff"
     bordercolor="#666666"
     borderopacity="1"
     objecttolerance="10"
     gridtolerance="10"
     guidetolerance="10"
     inkscape:pageopacity="0"
     inkscape:pageshadow="2"
     inkscape:window-width="1272"
     inkscape:window-height="735"
     id="namedview16"
     showgrid="false"
     inkscape:zoom="2.3600236"
     inkscape:cx="13.672872"
     inkscape:cy="72.174603"
     inkscape:window-x="0"
     inkscape:window-y="0"
     inkscape:window-maximized="0"
     inkscape:current-layer="svg2"
     fit-margin-top="0"
     fit-margin-left="0"
     fit-margin-right="0"
     fit-margin-bottom="0" /><rect
     style="fill:#ffffff;fill-opacity:1;stroke:#bd0000;stroke-width:6.32982779;stroke-linecap:butt;stroke-linejoin:round;stroke-miterlimit:4;stroke-dasharray:none;stroke-opacity:1"
     id="rect4148"
     width="151.15485"
     height="135.47704"
     x="3.1649139"
     y="3.1649139" /><path
     d="m 73.075697,56.58676 c 0.587,1.717 1.952,1.949 0,2.597 l -5.197,2.597 -5.2,-5.194 c -0.684,-2.032 0.163,-3.339 2.6,-5.2 l 5.2,2.597 c 0.637,0.797 2.394,1.999 2.597,2.603 z"
     id="path4"
     style="fill:#bd0000;fill-opacity:1"
     inkscape:connector-curvature="0" /><path
     d="m 67.878697,35.78176 c -1.57,-0.764 -3.447,-0.582 -5.2,0 -0.914,0.305 -1.531,1.678 -2.6,2.603 l 0,7.802 7.8,-2.603 c 2.143,-2.437 3.106,-3.677 2.6,-5.2 -0.407,-1.212 -1.022,-1.81 -2.6,-2.602 z"
     id="path6"
     style="fill:#bd0000;fill-opacity:1"
     inkscape:connector-curvature="0" /><path
     d="m 89.261697,46.25876 -0.587,-0.072 c -0.299,0.1 -2.525,-1.767 -5.194,-2.603 -1.285,-0.443 -1.302,0.509 -2.603,0 -1.844,0.625 -2.151,2.165 -2.6,5.2 -0.449,3.045 -1.022,7.343 0,10.399 0.271,0.825 1.575,1.567 2.6,2.597 l 2.603,2.603 2.592,0 c 3.389,-1.479 4.685,-5.022 5.205,-5.2 1.218,-0.731 2.171,-2.902 2.603,-5.2 0.41,-2.309 0.709,-3.051 0,-5.2 -0.82,-2.435 -2.98,-3.067 -4.619,-2.524 z"
     id="path8"
     style="fill:#bd0000;fill-opacity:1"
     inkscape:connector-curvature="0" /><path
     d="m 88.674697,69.58276 0,5.2 c 1.307,1.151 2.663,2.221 5.205,2.603 l 5.194,-2.603 -2.597,-7.803 -7.802,2.603 z"
     id="path10"
     style="fill:#bd0000;fill-opacity:1"
     inkscape:connector-curvature="0" /><path
     d="m 119.8727,69.58276 c -3.467,-3.843 -5.315,-4.303 -10.399,-2.603 l -2.597,0 c -2.415,2.132 -3.527,3.782 -5.2,7.803 -1.634,3.837 -3.334003,8.195 -2.603003,10.399 0.066,0.177 2.126003,2.441 5.205003,5.199 3.245,2.675 4.796,4.303 5.194,5.2 l 10.399,-2.603 c 1.119,-0.365 5.466,-9.619 5.2,-10.395 -2.086,-6.266 -3.072,-10.602 -5.199,-13 z"
     id="path12"
     style="fill:#bd0000;fill-opacity:1"
     inkscape:connector-curvature="0" /><path
     d="m 112.1597,119.49276 c -0.027,-0.172 -0.172,-0.515 -0.083,-0.515 -1.949,-2.77 -10.289,-9.342 -10.399,-10.399 -0.122,-1.125 -2.447003,-5.167 -5.199003,-7.797 -1.18,-1.866 -1.291,-3.295 -2.598,-5.2 -1.307,-1.889 -3.743,-5.781 -5.205,-7.803 l -9.805,-6.157 c -1.423,-0.765 -9.613,-0.493 -21.015,-12.548 l -0.376,-7.293 c -1.537,-1.872 -4.718,-6.346 -5.2,-7.797 -3.004,-8.96 -1.01,-16.275 -2.6,-28.596 l -5.785,-3.876 -6.916,-1.324 c -2.478,-0.555 -8.024,-0.555 -8.024,-0.555 l 0,99.999 10.325,0 72.908003,0 0.199,0 -0.227,-0.139 z"
     id="path14"
     style="fill:#bd0000;fill-opacity:1"
     inkscape:connector-curvature="0" /></svg>