<?xml version="1.0" encoding="UTF-8" standalone="no"?>
<svg
   xmlns:dc="http://purl.org/dc/elements/1.1/"
   xmlns:cc="http://creativecommons.org/ns#"
   xmlns:rdf="http://www.w3.org/1999/02/22-rdf-syntax-ns#"
   xmlns:svg="http://www.w3.org/2000/svg"
   xmlns="http://www.w3.org/2000/svg"
   xmlns:sodipodi="http://sodipodi.sourceforge.net/DTD/sodipodi-0.dtd"
   xmlns:inkscape="http://www.inkscape.org/namespaces/inkscape"
   version="1.1"
   x="0px"
   y="0px"
   viewBox="0 0 132.09575 121.07879"
   enable-background="new 0 0 100 100"
   xml:space="preserve"
   id="svg2"
   inkscape:version="0.91 r13725"
   sodipodi:docname="Spray Shed1.svg"
   width="132.09575"
   height="121.07879"><metadata
     id="metadata40"><rdf:RDF><cc:Work
         rdf:about=""><dc:format>image/svg+xml</dc:format><dc:type
           rdf:resource="http://purl.org/dc/dcmitype/StillImage" /><dc:title></dc:title></cc:Work></rdf:RDF></metadata><defs
     id="defs38" /><sodipodi:namedview
     pagecolor="#ffffff"
     bordercolor="#666666"
     borderopacity="1"
     objecttolerance="10"
     gridtolerance="10"
     guidetolerance="10"
     inkscape:pageopacity="0"
     inkscape:pageshadow="2"
     inkscape:window-width="1495"
     inkscape:window-height="844"
     id="namedview36"
     showgrid="false"
     inkscape:zoom="2.36"
     inkscape:cx="2.2766909"
     inkscape:cy="57.149561"
     inkscape:window-x="0"
     inkscape:window-y="0"
     inkscape:window-maximized="0"
     inkscape:current-layer="svg2"
     fit-margin-top="0"
     fit-margin-left="0"
     fit-margin-right="0"
     fit-margin-bottom="0" /><rect
     style="opacity:1;fill:#ffffff;fill-opacity:1;stroke:#0000c2;stroke-width:3.58673692;stroke-linecap:butt;stroke-linejoin:round;stroke-miterlimit:4;stroke-dasharray:none;stroke-opacity:1"
     id="rect4168"
     width="128.50902"
     height="117.49205"
     x="1.7933685"
     y="1.7933685" /><path
     d="m 18.744148,58.718226 93.839002,0 c 0,0 -14.771002,-29.068 -46.959002,-29.068 -32.188,0 -46.88,29.068 -46.88,29.068 z"
     id="path4"
     style="fill:#0000c2;fill-opacity:1"
     inkscape:connector-curvature="0" /><rect
     x="58.752148"
     y="17.486225"
     width="13.744"
     height="24.329"
     id="rect6"
     style="fill:#0000c2;fill-opacity:1" /><path
     d="m 31.277148,76.015226 c 0,1.31 -1.061,2.37 -2.37,2.37 l 0,0 c -1.309,0 -2.37,-1.061 -2.37,-2.37 l 0,-11.531 c 0,-1.31 1.061,-2.37 2.37,-2.37 l 0,0 c 1.309,0 2.37,1.061 2.37,2.37 l 0,11.531 z"
     id="path8"
     style="fill:#0000c2;fill-opacity:1"
     inkscape:connector-curvature="0" /><path
     d="m 31.277148,96.870226 c 0,1.311 -1.061,2.371 -2.369,2.371 l 0,0 c -1.309,0 -2.37,-1.061 -2.37,-2.371 l 0,-11.531 c 0,-1.309 1.061,-2.369 2.37,-2.369 l 0,0 c 1.309,0 2.369,1.061 2.369,2.369 l 0,11.531 z"
     id="path10"
     style="fill:#0000c2;fill-opacity:1"
     inkscape:connector-curvature="0" /><path
     d="m 40.260148,85.180226 c 0,1.31 -1.061,2.37 -2.369,2.37 l 0,0 c -1.309,0 -2.37,-1.061 -2.37,-2.37 l 0,-11.531 c 0,-1.31 1.061,-2.37 2.37,-2.37 l 0,0 c 1.309,0 2.369,1.061 2.369,2.37 l 0,11.531 z"
     id="path12"
     style="fill:#0000c2;fill-opacity:1"
     inkscape:connector-curvature="0" /><path
     d="m 49.637148,76.015226 c 0,1.31 -1.061,2.37 -2.37,2.37 l 0,0 c -1.309,0 -2.37,-1.061 -2.37,-2.37 l 0,-11.531 c 0,-1.31 1.061,-2.37 2.37,-2.37 l 0,0 c 1.309,0 2.37,1.061 2.37,2.37 l 0,11.531 z"
     id="path14"
     style="fill:#0000c2;fill-opacity:1"
     inkscape:connector-curvature="0" /><path
     d="m 49.637148,96.870226 c 0,1.311 -1.061,2.371 -2.369,2.371 l 0,0 c -1.309,0 -2.37,-1.061 -2.37,-2.371 l 0,-11.531 c 0,-1.309 1.061,-2.369 2.37,-2.369 l 0,0 c 1.309,0 2.369,1.061 2.369,2.369 l 0,11.531 z"
     id="path16"
     style="fill:#0000c2;fill-opacity:1"
     inkscape:connector-curvature="0" /><path
     d="m 58.621148,85.180226 c 0,1.31 -1.061,2.37 -2.369,2.37 l 0,0 c -1.309,0 -2.37,-1.061 -2.37,-2.37 l 0,-11.531 c 0,-1.31 1.062,-2.37 2.37,-2.37 l 0,0 c 1.309,0 2.369,1.061 2.369,2.37 l 0,11.531 z"
     id="path18"
     style="fill:#0000c2;fill-opacity:1"
     inkscape:connector-curvature="0" /><path
     d="m 67.399148,76.015226 c 0,1.31 -1.062,2.37 -2.37,2.37 l 0,0 c -1.309,0 -2.37,-1.061 -2.37,-2.37 l 0,-11.531 c 0,-1.31 1.061,-2.37 2.37,-2.37 l 0,0 c 1.309,0 2.37,1.061 2.37,2.37 l 0,11.531 z"
     id="path20"
     style="fill:#0000c2;fill-opacity:1"
     inkscape:connector-curvature="0" /><path
     d="m 67.399148,96.870226 c 0,1.311 -1.061,2.371 -2.37,2.371 l 0,0 c -1.309,0 -2.37,-1.061 -2.37,-2.371 l 0,-11.531 c 0,-1.309 1.061,-2.369 2.37,-2.369 l 0,0 c 1.309,0 2.37,1.061 2.37,2.369 l 0,11.531 z"
     id="path22"
     style="fill:#0000c2;fill-opacity:1"
     inkscape:connector-curvature="0" /><path
     d="m 76.383148,85.180226 c 0,1.31 -1.061,2.37 -2.369,2.37 l 0,0 c -1.309,0 -2.37,-1.061 -2.37,-2.37 l 0,-11.531 c 0,-1.31 1.062,-2.37 2.37,-2.37 l 0,0 c 1.309,0 2.369,1.061 2.369,2.37 l 0,11.531 z"
     id="path24"
     style="fill:#0000c2;fill-opacity:1"
     inkscape:connector-curvature="0" /><path
     d="m 85.497148,76.015226 c 0,1.31 -1.061,2.37 -2.369,2.37 l 0,0 c -1.309,0 -2.369,-1.061 -2.369,-2.37 l 0,-11.531 c 0,-1.31 1.061,-2.37 2.369,-2.37 l 0,0 c 1.309,0 2.369,1.061 2.369,2.37 l 0,11.531 z"
     id="path26"
     style="fill:#0000c2;fill-opacity:1"
     inkscape:connector-curvature="0" /><path
     d="m 85.497148,96.870226 c 0,1.311 -1.061,2.371 -2.369,2.371 l 0,0 c -1.309,0 -2.369,-1.061 -2.369,-2.371 l 0,-11.531 c 0,-1.309 1.061,-2.369 2.369,-2.369 l 0,0 c 1.309,0 2.369,1.061 2.369,2.369 l 0,11.531 z"
     id="path28"
     style="fill:#0000c2;fill-opacity:1"
     inkscape:connector-curvature="0" /><path
     d="m 94.481148,85.180226 c 0,1.31 -1.061,2.37 -2.369,2.37 l 0,0 c -1.309,0 -2.37,-1.061 -2.37,-2.37 l 0,-11.531 c 0,-1.31 1.062,-2.37 2.37,-2.37 l 0,0 c 1.309,0 2.369,1.061 2.369,2.37 l 0,11.531 z"
     id="path30"
     style="fill:#0000c2;fill-opacity:1"
     inkscape:connector-curvature="0" /><path
     d="m 103.35615,76.015226 c 0,1.311 -1.061,2.371 -2.369,2.371 l 0,0 c -1.309002,0 -2.369002,-1.061 -2.369002,-2.371 l 0,-11.531 c 0,-1.31 1.061,-2.37 2.369002,-2.37 l 0,0 c 1.309,0 2.369,1.061 2.369,2.37 l 0,11.531 z"
     id="path32"
     style="fill:#0000c2;fill-opacity:1"
     inkscape:connector-curvature="0" /><path
     d="m 103.35615,96.870226 c 0,1.311 -1.061,2.371 -2.369,2.371 l 0,0 c -1.309002,0 -2.369002,-1.061 -2.369002,-2.371 l 0,-11.531 c 0,-1.309 1.061,-2.369 2.369002,-2.369 l 0,0 c 1.309,0 2.369,1.061 2.369,2.369 l 0,11.531 z"
     id="path34"
     style="fill:#0000c2;fill-opacity:1"
     inkscape:connector-curvature="0" /></svg>