<?xml version="1.0" encoding="UTF-8" standalone="no"?>
<svg
   xmlns:ns="http://ns.adobe.com/SaveForWeb/1.0/"
   xmlns:dc="http://purl.org/dc/elements/1.1/"
   xmlns:cc="http://creativecommons.org/ns#"
   xmlns:rdf="http://www.w3.org/1999/02/22-rdf-syntax-ns#"
   xmlns:svg="http://www.w3.org/2000/svg"
   xmlns="http://www.w3.org/2000/svg"
   xmlns:sodipodi="http://sodipodi.sourceforge.net/DTD/sodipodi-0.dtd"
   xmlns:inkscape="http://www.inkscape.org/namespaces/inkscape"
   version="1.1"
   x="0px"
   y="0px"
   viewBox="0 0 109.59975 96.464149"
   enable-background="new 0 0 100 100"
   xml:space="preserve"
   id="svg2"
   inkscape:version="0.91 r13725"
   sodipodi:docname="table.svg"
   width="109.59975"
   height="96.464149"><defs
     id="defs12" /><sodipodi:namedview
     pagecolor="#ffffff"
     bordercolor="#666666"
     borderopacity="1"
     objecttolerance="10"
     gridtolerance="10"
     guidetolerance="10"
     inkscape:pageopacity="0"
     inkscape:pageshadow="2"
     inkscape:window-width="1920"
     inkscape:window-height="1018"
     id="namedview10"
     showgrid="false"
     fit-margin-top="0"
     fit-margin-left="0"
     fit-margin-right="0"
     fit-margin-bottom="0"
     inkscape:zoom="2.36"
     inkscape:cx="54.376144"
     inkscape:cy="50.138853"
     inkscape:window-x="-8"
     inkscape:window-y="-8"
     inkscape:window-maximized="1"
     inkscape:current-layer="svg2" /><metadata
     id="metadata4"><ns:sfw><ns:slices /><ns:sliceSourceBounds
         y="-8142"
         x="-8141"
         width="16383"
         height="16383"
         bottomLeftOrigin="true" /></ns:sfw><rdf:RDF><cc:Work
         rdf:about=""><dc:format>image/svg+xml</dc:format><dc:type
           rdf:resource="http://purl.org/dc/dcmitype/StillImage" /><dc:title></dc:title></cc:Work></rdf:RDF></metadata><rect
     style="fill:#c7e9ff;fill-opacity:1;stroke:#000000;stroke-width:4.51499987;stroke-linecap:butt;stroke-linejoin:round;stroke-miterlimit:4;stroke-dasharray:none;stroke-opacity:1"
     id="rect4140"
     width="105.08475"
     height="91.94915"
     x="2.2574999"
     y="2.2574999" /><g
     id="g6"
     transform="translate(4.3761439,-3.6747034)"><path
       d="m 83,25 -66,0 c -1.104,0 -2,0.896 -2,2 l 0,3.5 c 0,1.104 0.896,2 2,2 l 9.365,0 L 47.916,54.051 23.734,78.232 25.502,80 49.684,55.818 73.865,80 75.633,78.232 51.451,54.051 73.002,32.5 83,32.5 c 1.104,0 2,-0.896 2,-2 L 85,27 c 0,-1.104 -0.896,-2 -2,-2 z M 49.684,52.283 29.9,32.5 l 39.566,0 -19.782,19.783 z"
       id="path8"
       inkscape:connector-curvature="0" /></g></svg>