<?xml version="1.0" encoding="UTF-8" standalone="no"?>
<svg
   xmlns:dc="http://purl.org/dc/elements/1.1/"
   xmlns:cc="http://creativecommons.org/ns#"
   xmlns:rdf="http://www.w3.org/1999/02/22-rdf-syntax-ns#"
   xmlns:svg="http://www.w3.org/2000/svg"
   xmlns="http://www.w3.org/2000/svg"
   xmlns:sodipodi="http://sodipodi.sourceforge.net/DTD/sodipodi-0.dtd"
   xmlns:inkscape="http://www.inkscape.org/namespaces/inkscape"
   viewBox="0 0 16.76017 16.76017"
   height="16.76017"
   width="16.76017"
   id="svg2"
   version="1.1"
   inkscape:version="0.91 r13725"
   sodipodi:docname="tomo.svg">
  <metadata
     id="metadata14">
    <rdf:RDF>
      <cc:Work
         rdf:about="">
        <dc:format>image/svg+xml</dc:format>
        <dc:type
           rdf:resource="http://purl.org/dc/dcmitype/StillImage" />
        <dc:title>danger-15.svg</dc:title>
      </cc:Work>
    </rdf:RDF>
  </metadata>
  <defs
     id="defs12" />
  <sodipodi:namedview
     pagecolor="#ffffff"
     bordercolor="#666666"
     borderopacity="1"
     objecttolerance="10"
     gridtolerance="10"
     guidetolerance="10"
     inkscape:pageopacity="0"
     inkscape:pageshadow="2"
     inkscape:window-width="1920"
     inkscape:window-height="1018"
     id="namedview10"
     showgrid="false"
     fit-margin-top="0"
     fit-margin-left="0"
     fit-margin-right="0"
     fit-margin-bottom="0"
     inkscape:zoom="12.421053"
     inkscape:cx="8.661864"
     inkscape:cy="8.2593219"
     inkscape:window-x="-8"
     inkscape:window-y="-8"
     inkscape:window-maximized="1"
     inkscape:current-layer="svg2" />
  <title
     id="title4">danger-15.svg</title>
  <rect
     x="-0.83813602"
     y="-0.99915248"
     width="19"
     height="19"
     id="rect6"
     style="fill:none" />
  <circle
     style="fill:#ffffff;fill-opacity:1;stroke:#cb0000;stroke-width:0.89999998;stroke-miterlimit:4;stroke-dasharray:none;stroke-opacity:1"
     id="path4142"
     cx="8.380085"
     cy="8.380085"
     r="7.9300847" />
  <path
     d="m 13.000847,7.9681356 0,0.45 c -0.0021,0.2129 -0.0722,0.4196 -0.2,0.5899999 -0.5586,0.6183 -1.1601,1.1964005 -1.8,1.7300005 l 0,1.16 c 0.0015,0.208 -0.126,0.3951 -0.32,0.47 l -2.16,0.87 -0.07,0 -2.17,-0.87 c -0.1784,-0.0872 -0.2883,-0.2716 -0.28,-0.47 l 0,-1.16 c -0.6472,-0.5325 -1.2554,-1.1107005 -1.82,-1.7300005 -0.1207,-0.1727999 -0.1837,-0.3792999 -0.18,-0.5899999 l 0,-0.45 c 0.1669,-2.2183 1.8974,-3.9993 4.11,-4.23 l 0.36,0 0,0 0.39,0 c 2.2262,0.2131 3.9748,1.9997 4.14,4.23 z m -6,-0.23 c 0,-0.5523 -0.4477,-1 -1,-1 -0.5523,0 -1,0.4477 -1,1 0,0.5523 0.4477,1 1,1 0.5523,0 1,-0.4477 1,-1 z m 1,3.0000004 c 0,-0.2761 -0.2239,-0.5 -0.5,-0.5 -0.2761,0 -0.5,0.2239 -0.5,0.5 l 0,0.5 c 0,0.2761 0.2239,0.5 0.5,0.5 0.2761,0 0.5,-0.2239 0.5,-0.5 z m 2,0 c 0,-0.2761 -0.2239,-0.5 -0.5,-0.5 -0.2761,0 -0.5,0.2239 -0.5,0.5 l 0,0.5 c 0,0.2761 0.2239,0.5 0.5,0.5 0.2761,0 0.5,-0.2239 0.5,-0.5 z m 2,-3.0000004 c 0,-0.5523 -0.4477,-1 -1,-1 -0.5523,0 -1,0.4477 -1,1 0,0.5523 0.4477,1 1,1 0.5523,0 1,-0.4477 1,-1 z"
     id="path8"
     inkscape:connector-curvature="0"
     style="fill:#cb0000;fill-opacity:1;stroke:#000000;stroke-width:0.2;stroke-miterlimit:4;stroke-dasharray:none;stroke-opacity:1"
     sodipodi:nodetypes="cccccccccccccccccccssssssssssssssssssssssss" />
</svg>
