<?xml version="1.0" encoding="UTF-8" standalone="no"?>
<svg
   xmlns:dc="http://purl.org/dc/elements/1.1/"
   xmlns:cc="http://creativecommons.org/ns#"
   xmlns:rdf="http://www.w3.org/1999/02/22-rdf-syntax-ns#"
   xmlns:svg="http://www.w3.org/2000/svg"
   xmlns="http://www.w3.org/2000/svg"
   xmlns:sodipodi="http://sodipodi.sourceforge.net/DTD/sodipodi-0.dtd"
   xmlns:inkscape="http://www.inkscape.org/namespaces/inkscape"
   version="1.1"
   x="0px"
   y="0px"
   viewBox="0 0 48.257122 35.672375"
   enable-background="new 0 0 30 30"
   xml:space="preserve"
   id="svg2"
   inkscape:version="0.91 r13725"
   sodipodi:docname="Truck entrance.svg"
   width="48.257122"
   height="35.672375"><metadata
     id="metadata96"><rdf:RDF><cc:Work
         rdf:about=""><dc:format>image/svg+xml</dc:format><dc:type
           rdf:resource="http://purl.org/dc/dcmitype/StillImage" /><dc:title></dc:title></cc:Work></rdf:RDF></metadata><defs
     id="defs94" /><sodipodi:namedview
     pagecolor="#ffffff"
     bordercolor="#666666"
     borderopacity="1"
     objecttolerance="10"
     gridtolerance="10"
     guidetolerance="10"
     inkscape:pageopacity="0"
     inkscape:pageshadow="2"
     inkscape:window-width="1609"
     inkscape:window-height="812"
     id="namedview92"
     showgrid="false"
     fit-margin-top="0"
     fit-margin-left="0"
     fit-margin-right="0"
     fit-margin-bottom="0"
     inkscape:zoom="7.8666667"
     inkscape:cx="22.666695"
     inkscape:cy="23.810764"
     inkscape:window-x="0"
     inkscape:window-y="0"
     inkscape:window-maximized="0"
     inkscape:current-layer="svg2" /><rect
     style="opacity:1;fill:#ffffff;fill-opacity:1;stroke:#000000;stroke-width:2.97951055;stroke-linecap:butt;stroke-linejoin:round;stroke-miterlimit:4;stroke-dasharray:none;stroke-opacity:1"
     id="rect4224"
     width="45.277611"
     height="32.692863"
     x="1.4897553"
     y="1.4897553" /><g
     id="g48"
     transform="translate(7.4124575,2.4548306)"><g
       id="g50"><path
         d="m 3.254,14.216 -2.363,1.203 0,4.233 -0.633,0 C 0.115,19.651 0,19.767 0,19.909 l 0,0.58 c 0,0.143 0.115,0.258 0.258,0.258 l 0.634,0 0,0.473 2.938,0 C 3.805,21.066 3.792,20.908 3.792,20.747 c 0,-1.614 1.308,-2.922 2.922,-2.922 1.613,0 2.921,1.308 2.921,2.922 0,0.161 -0.013,0.318 -0.039,0.473 l 0.705,0 0,-6.575 0,-4.468 -4.038,0 -3.009,4.039 z m 6.381,-3.437 0,3.652 -5.585,0 2.572,-3.652 c 0,0 3.013,0 3.013,0 z"
         id="path52"
         inkscape:connector-curvature="0" /></g><g
       id="g54"><path
         d="m 29.484,6.771 -18.109,0 c -0.285,0 -0.516,0.231 -0.516,0.516 l 0,9.442 19.141,0 0,-9.442 C 30,7.003 29.769,6.771 29.484,6.771 Z"
         id="path56"
         inkscape:connector-curvature="0" /></g><g
       id="g58"><path
         d="m 10.86,20.5 0,0.516 0.516,0 11.055,0 c -0.008,-0.089 -0.012,-0.178 -0.012,-0.269 0,-1.614 1.308,-2.922 2.921,-2.922 1.614,0 2.922,1.308 2.922,2.922 0,0.091 -0.004,0.18 -0.013,0.269 l 1.235,0 0.516,0 0,-0.516 0,-3.062 -19.14,0 0,3.062 z"
         id="path60"
         inkscape:connector-curvature="0" /></g><g
       id="g62"><path
         d="m 6.714,18.266 c -1.371,0 -2.481,1.11 -2.481,2.481 0,1.37 1.111,2.481 2.481,2.481 1.37,0 2.481,-1.111 2.481,-2.481 0,-1.371 -1.111,-2.481 -2.481,-2.481 z m 0,3.225 c -0.411,0 -0.745,-0.333 -0.745,-0.744 0,-0.411 0.333,-0.745 0.745,-0.745 0.411,0 0.744,0.334 0.744,0.745 0,0.411 -0.333,0.744 -0.744,0.744 z"
         id="path64"
         inkscape:connector-curvature="0" /></g><g
       id="g66"><path
         d="m 25.34,18.266 c -1.37,0 -2.481,1.11 -2.481,2.481 0,1.37 1.111,2.481 2.481,2.481 1.371,0 2.481,-1.111 2.481,-2.481 0,-1.371 -1.111,-2.481 -2.481,-2.481 z m 0,3.225 c -0.411,0 -0.744,-0.333 -0.744,-0.744 0,-0.411 0.333,-0.745 0.744,-0.745 0.411,0 0.745,0.334 0.745,0.745 0,0.411 -0.334,0.744 -0.745,0.744 z"
         id="path68"
         inkscape:connector-curvature="0" /></g></g></svg>